<svg xmlns="http://www.w3.org/2000/svg" xmlns:xlink="http://www.w3.org/1999/xlink" width="1850" height="919" version="1.1">
<style type="text/css">
.l0{
 fill: #ffffff;
  stroke: #ffffff;
  stroke-linecap:round;
  stroke-linejoin:round;
  stroke-width: 1.34912;
}
.l1{
 fill: #000000;
  stroke: #000000;
  stroke-linecap:round;
  stroke-linejoin:round;
  stroke-width: 1.34912;
}
.l2{
  fill: none;
  stroke: #000000;
  stroke-linecap:round;
  stroke-linejoin:round;
  stroke-width: 1.34912;
}
.l3{
 fill: #000000; fill-opacity: 0.5;
  stroke: #000000;
  stroke-linecap:round;
  stroke-linejoin:round;
  stroke-width: 1.34912;
}
.l4{
 fill: #000000;
  stroke: #000000;
  stroke-linecap:round;
  stroke-linejoin:round;
  stroke-width: 1.34912;
}
.l5{
 fill: #000000;
  stroke: #000000;
  stroke-linecap:round;
  stroke-linejoin:round;
  stroke-width: 1.34912;
}
.l6{
 fill: #000000; fill-opacity: 0.5;
  stroke: #000000;
  stroke-linecap:round;
  stroke-linejoin:round;
  stroke-width: 1.34912;
}
.l7{
 fill: #000000; fill-opacity: 0.5;
  stroke: #000000;
  stroke-linecap:round;
  stroke-linejoin:round;
  stroke-width: 1.34912;
}
.l8{
 fill: #000000; fill-opacity: 0.5;
  stroke: #000000;
  stroke-linecap:round;
  stroke-linejoin:round;
  stroke-width: 1.34912;
}
.l9{
 fill: #000000; fill-opacity: 0.5;
  stroke: #000000;
  stroke-linecap:round;
  stroke-linejoin:round;
  stroke-width: 1.34912;
}
.l10{
 fill: #000000;
  stroke: #000000;
  stroke-linecap:round;
  stroke-linejoin:round;
  stroke-width: 1.34912;
}
.l11{
 fill: #000000; fill-opacity: 0.5;
  stroke: #000000;
  stroke-linecap:round;
  stroke-linejoin:round;
  stroke-width: 1.34912;
}
.l12{
 fill: #000000; fill-opacity: 0.5;
  stroke: #000000;
  stroke-linecap:round;
  stroke-linejoin:round;
  stroke-width: 1.34912;
}
.l13{
 fill: #000000; fill-opacity: 0.5;
  stroke: #000000;
  stroke-linecap:round;
  stroke-linejoin:round;
  stroke-width: 1.34912;
}
.l14{
  fill: none;
  stroke: #000000;
  stroke-linecap:round;
  stroke-linejoin:round;
  stroke-width: 1.34912;
}
.l15{
 fill: #000000; fill-opacity: 0.5;
  stroke: #000000;
  stroke-linecap:round;
  stroke-linejoin:round;
  stroke-width: 1.34912;
}
.l16{
 fill: #000000; fill-opacity: 0.5;
  stroke: #000000;
  stroke-linecap:round;
  stroke-linejoin:round;
  stroke-width: 1.34912;
}
.l17{
  fill: none;
  stroke: #000000;
  stroke-linecap:round;
  stroke-linejoin:round;
  stroke-width: 1.34912;
}
.l18{
 fill: #000000; fill-opacity: 0.5;
  stroke: #000000;
  stroke-linecap:round;
  stroke-linejoin:round;
  stroke-width: 1.34912;
}
.l19{
  fill: none;
  stroke: #000000;
  stroke-linecap:round;
  stroke-linejoin:round;
  stroke-width: 1.34912;
}
.l20{
  fill: none;
  stroke: #000000;
  stroke-linecap:round;
  stroke-linejoin:round;
  stroke-width: 1.34912;
}
.l21{
  fill: none;
  stroke: #000000;
  stroke-linecap:round;
  stroke-linejoin:round;
  stroke-width: 1.34912;
}
text {font-family: Sans-Serif;}
</style>
<rect class="l0" x="0" y="0" width="1850" height="919"/>
<text fill="#000000"  xml:space="preserve" font-size="21.4359" transform="translate(185.226, 893.204) rotate(270)" >V6</text>
<text fill="#000000"  xml:space="preserve" font-size="21.4359" transform="translate(400.314, 893.204) rotate(270)" >V5</text>
<text fill="#000000"  xml:space="preserve" font-size="21.4359" transform="translate(612.674, 893.204) rotate(270)" >V4</text>
<text fill="#000000"  xml:space="preserve" font-size="21.4359" transform="translate(825.035, 893.204) rotate(270)" >V3</text>
<text fill="#000000"  xml:space="preserve" font-size="21.4359" transform="translate(1037.4, 893.204) rotate(270)" >V2</text>
<text fill="#000000"  xml:space="preserve" font-size="21.4359" transform="translate(1249.76, 905.696) rotate(270)" >V1</text>
<text fill="#000000"  xml:space="preserve" font-size="21.4359" transform="translate(1462.12, 905.696) rotate(270)" >V0</text>
<text fill="#000000"  xml:space="preserve" font-size="21.4359" transform="translate(91.1554, 197.796)" >Iin</text>
<text fill="#000000"  xml:space="preserve" font-size="21.4359" transform="translate(1753.39, 412.102)" >Idump</text>
<text fill="#000000"  xml:space="preserve" font-size="21.4359" transform="translate(1753.39, 449.578)" >Iout</text>
<text fill="#000000"  xml:space="preserve" font-size="12.9915" transform="translate(27.5094, 178.021)" >VDD</text>
<path class="l4" d="M216.895 191.208L216.895 209.946"/>
<path class="l4" d="M198.157 209.946L216.895 209.946"/>
<path class="l4" d="M198.157 202.919L198.157 254.448"/>
<path class="l4" d="M198.157 247.421L216.895 247.421"/>
<path class="l4" d="M216.895 247.421L216.895 266.159"/>
<path class="l4" d="M193.473 209.946L193.473 247.421"/>
<path class="l4" d="M179.419 228.683L193.473 228.683"/>
<path class="l4" d="M304.337 191.208L323.075 191.208"/>
<path class="l4" d="M323.075 191.208L323.075 209.946"/>
<path class="l4" d="M316.049 209.946L367.577 209.946"/>
<path class="l4" d="M360.551 191.208L360.551 209.946"/>
<path class="l4" d="M360.551 191.208L379.288 191.208"/>
<path class="l4" d="M323.075 214.63L360.551 214.63"/>
<path class="l4" d="M341.813 214.63L341.813 228.683"/>
<path class="l4" d="M429.256 191.208L429.256 209.946"/>
<path class="l4" d="M410.518 209.946L429.256 209.946"/>
<path class="l4" d="M410.518 202.919L410.518 254.448"/>
<path class="l4" d="M410.518 247.421L429.256 247.421"/>
<path class="l4" d="M429.256 247.421L429.256 266.159"/>
<path class="l4" d="M405.833 209.946L405.833 247.421"/>
<path class="l4" d="M391.78 228.683L405.833 228.683"/>
<path class="l4" d="M516.698 191.208L535.436 191.208"/>
<path class="l4" d="M535.436 191.208L535.436 209.946"/>
<path class="l4" d="M528.409 209.946L579.938 209.946"/>
<path class="l4" d="M572.911 191.208L572.911 209.946"/>
<path class="l4" d="M572.911 191.208L591.649 191.208"/>
<path class="l4" d="M535.436 214.63L572.911 214.63"/>
<path class="l4" d="M554.174 214.63L554.174 228.683"/>
<path class="l4" d="M429.256 278.651L429.256 297.388"/>
<path class="l4" d="M410.518 297.388L429.256 297.388"/>
<path class="l4" d="M410.518 290.362L410.518 341.891"/>
<path class="l4" d="M410.518 334.864L429.256 334.864"/>
<path class="l4" d="M429.256 334.864L429.256 353.602"/>
<path class="l4" d="M405.833 297.388L405.833 334.864"/>
<path class="l4" d="M391.78 316.126L405.833 316.126"/>
<path class="l4" d="M529.19 278.651L529.19 297.388"/>
<path class="l4" d="M510.452 297.388L529.19 297.388"/>
<path class="l4" d="M510.452 290.362L510.452 341.891"/>
<path class="l4" d="M510.452 334.864L529.19 334.864"/>
<path class="l4" d="M529.19 334.864L529.19 353.602"/>
<path class="l4" d="M505.768 297.388L505.768 334.864"/>
<path class="l4" d="M491.715 316.126L505.768 316.126"/>
<path class="l4" d="M216.895 278.651L216.895 297.388"/>
<path class="l4" d="M198.157 297.388L216.895 297.388"/>
<path class="l4" d="M198.157 290.362L198.157 341.891"/>
<path class="l4" d="M198.157 334.864L216.895 334.864"/>
<path class="l4" d="M216.895 334.864L216.895 353.602"/>
<path class="l4" d="M193.473 297.388L193.473 334.864"/>
<path class="l4" d="M179.419 316.126L193.473 316.126"/>
<path class="l4" d="M316.829 278.651L316.829 297.388"/>
<path class="l4" d="M298.092 297.388L316.829 297.388"/>
<path class="l4" d="M298.092 290.362L298.092 341.891"/>
<path class="l4" d="M298.092 334.864L316.829 334.864"/>
<path class="l4" d="M316.829 334.864L316.829 353.602"/>
<path class="l4" d="M293.407 297.388L293.407 334.864"/>
<path class="l4" d="M279.354 316.126L293.407 316.126"/>
<path class="l4" d="M641.616 191.208L641.616 209.946"/>
<path class="l4" d="M622.879 209.946L641.616 209.946"/>
<path class="l4" d="M622.879 202.919L622.879 254.448"/>
<path class="l4" d="M622.879 247.421L641.616 247.421"/>
<path class="l4" d="M641.616 247.421L641.616 266.159"/>
<path class="l4" d="M618.194 209.946L618.194 247.421"/>
<path class="l4" d="M604.141 228.683L618.194 228.683"/>
<path class="l4" d="M729.059 191.208L747.797 191.208"/>
<path class="l4" d="M747.797 191.208L747.797 209.946"/>
<path class="l4" d="M740.77 209.946L792.299 209.946"/>
<path class="l4" d="M785.272 191.208L785.272 209.946"/>
<path class="l4" d="M785.272 191.208L804.01 191.208"/>
<path class="l4" d="M747.797 214.63L785.272 214.63"/>
<path class="l4" d="M766.534 214.63L766.534 228.683"/>
<path class="l4" d="M641.616 278.651L641.616 297.388"/>
<path class="l4" d="M622.879 297.388L641.616 297.388"/>
<path class="l4" d="M622.879 290.362L622.879 341.891"/>
<path class="l4" d="M622.879 334.864L641.616 334.864"/>
<path class="l4" d="M641.616 334.864L641.616 353.602"/>
<path class="l4" d="M618.194 297.388L618.194 334.864"/>
<path class="l4" d="M604.141 316.126L618.194 316.126"/>
<path class="l4" d="M741.551 278.651L741.551 297.388"/>
<path class="l4" d="M722.813 297.388L741.551 297.388"/>
<path class="l4" d="M722.813 290.362L722.813 341.891"/>
<path class="l4" d="M722.813 334.864L741.551 334.864"/>
<path class="l4" d="M741.551 334.864L741.551 353.602"/>
<path class="l4" d="M718.129 297.388L718.129 334.864"/>
<path class="l4" d="M704.075 316.126L718.129 316.126"/>
<path class="l4" d="M853.977 191.208L853.977 209.946"/>
<path class="l4" d="M835.239 209.946L853.977 209.946"/>
<path class="l4" d="M835.239 202.919L835.239 254.448"/>
<path class="l4" d="M835.239 247.421L853.977 247.421"/>
<path class="l4" d="M853.977 247.421L853.977 266.159"/>
<path class="l4" d="M830.555 209.946L830.555 247.421"/>
<path class="l4" d="M816.502 228.683L830.555 228.683"/>
<path class="l4" d="M941.42 191.208L960.158 191.208"/>
<path class="l4" d="M960.158 191.208L960.158 209.946"/>
<path class="l4" d="M953.131 209.946L1004.66 209.946"/>
<path class="l4" d="M997.633 191.208L997.633 209.946"/>
<path class="l4" d="M997.633 191.208L1016.37 191.208"/>
<path class="l4" d="M960.158 214.63L997.633 214.63"/>
<path class="l4" d="M978.895 214.63L978.895 228.683"/>
<path class="l4" d="M853.977 278.651L853.977 297.388"/>
<path class="l4" d="M835.239 297.388L853.977 297.388"/>
<path class="l4" d="M835.239 290.362L835.239 341.891"/>
<path class="l4" d="M835.239 334.864L853.977 334.864"/>
<path class="l4" d="M853.977 334.864L853.977 353.602"/>
<path class="l4" d="M830.555 297.388L830.555 334.864"/>
<path class="l4" d="M816.502 316.126L830.555 316.126"/>
<path class="l4" d="M953.912 278.651L953.912 297.388"/>
<path class="l4" d="M935.174 297.388L953.912 297.388"/>
<path class="l4" d="M935.174 290.362L935.174 341.891"/>
<path class="l4" d="M935.174 334.864L953.912 334.864"/>
<path class="l4" d="M953.912 334.864L953.912 353.602"/>
<path class="l4" d="M930.49 297.388L930.49 334.864"/>
<path class="l4" d="M916.436 316.126L930.49 316.126"/>
<path class="l4" d="M1066.34 191.208L1066.34 209.946"/>
<path class="l4" d="M1047.6 209.946L1066.34 209.946"/>
<path class="l4" d="M1047.6 202.919L1047.6 254.448"/>
<path class="l4" d="M1047.6 247.421L1066.34 247.421"/>
<path class="l4" d="M1066.34 247.421L1066.34 266.159"/>
<path class="l4" d="M1042.92 209.946L1042.92 247.421"/>
<path class="l4" d="M1028.86 228.683L1042.92 228.683"/>
<path class="l4" d="M1153.78 191.208L1172.52 191.208"/>
<path class="l4" d="M1172.52 191.208L1172.52 209.946"/>
<path class="l4" d="M1165.49 209.946L1217.02 209.946"/>
<path class="l4" d="M1209.99 191.208L1209.99 209.946"/>
<path class="l4" d="M1209.99 191.208L1228.73 191.208"/>
<path class="l4" d="M1172.52 214.63L1209.99 214.63"/>
<path class="l4" d="M1191.26 214.63L1191.26 228.683"/>
<path class="l4" d="M1066.34 278.651L1066.34 297.388"/>
<path class="l4" d="M1047.6 297.388L1066.34 297.388"/>
<path class="l4" d="M1047.6 290.362L1047.6 341.891"/>
<path class="l4" d="M1047.6 334.864L1066.34 334.864"/>
<path class="l4" d="M1066.34 334.864L1066.34 353.602"/>
<path class="l4" d="M1042.92 297.388L1042.92 334.864"/>
<path class="l4" d="M1028.86 316.126L1042.92 316.126"/>
<path class="l4" d="M1166.27 278.651L1166.27 297.388"/>
<path class="l4" d="M1147.53 297.388L1166.27 297.388"/>
<path class="l4" d="M1147.53 290.362L1147.53 341.891"/>
<path class="l4" d="M1147.53 334.864L1166.27 334.864"/>
<path class="l4" d="M1166.27 334.864L1166.27 353.602"/>
<path class="l4" d="M1142.85 297.388L1142.85 334.864"/>
<path class="l4" d="M1128.8 316.126L1142.85 316.126"/>
<path class="l4" d="M1278.7 191.208L1278.7 209.946"/>
<path class="l4" d="M1259.96 209.946L1278.7 209.946"/>
<path class="l4" d="M1259.96 202.919L1259.96 254.448"/>
<path class="l4" d="M1259.96 247.421L1278.7 247.421"/>
<path class="l4" d="M1278.7 247.421L1278.7 266.159"/>
<path class="l4" d="M1255.28 209.946L1255.28 247.421"/>
<path class="l4" d="M1241.22 228.683L1255.28 228.683"/>
<path class="l4" d="M1366.14 191.208L1384.88 191.208"/>
<path class="l4" d="M1384.88 191.208L1384.88 209.946"/>
<path class="l4" d="M1377.85 209.946L1429.38 209.946"/>
<path class="l4" d="M1422.35 191.208L1422.35 209.946"/>
<path class="l4" d="M1422.35 191.208L1441.09 191.208"/>
<path class="l4" d="M1384.88 214.63L1422.35 214.63"/>
<path class="l4" d="M1403.62 214.63L1403.62 228.683"/>
<path class="l4" d="M1278.7 278.651L1278.7 297.388"/>
<path class="l4" d="M1259.96 297.388L1278.7 297.388"/>
<path class="l4" d="M1259.96 290.362L1259.96 341.891"/>
<path class="l4" d="M1259.96 334.864L1278.7 334.864"/>
<path class="l4" d="M1278.7 334.864L1278.7 353.602"/>
<path class="l4" d="M1255.28 297.388L1255.28 334.864"/>
<path class="l4" d="M1241.22 316.126L1255.28 316.126"/>
<path class="l4" d="M1378.63 278.651L1378.63 297.388"/>
<path class="l4" d="M1359.9 297.388L1378.63 297.388"/>
<path class="l4" d="M1359.9 290.362L1359.9 341.891"/>
<path class="l4" d="M1359.9 334.864L1378.63 334.864"/>
<path class="l4" d="M1378.63 334.864L1378.63 353.602"/>
<path class="l4" d="M1355.21 297.388L1355.21 334.864"/>
<path class="l4" d="M1341.16 316.126L1355.21 316.126"/>
<path class="l4" d="M1491.06 191.208L1491.06 209.946"/>
<path class="l4" d="M1472.32 209.946L1491.06 209.946"/>
<path class="l4" d="M1472.32 202.919L1472.32 254.448"/>
<path class="l4" d="M1472.32 247.421L1491.06 247.421"/>
<path class="l4" d="M1491.06 247.421L1491.06 266.159"/>
<path class="l4" d="M1467.64 209.946L1467.64 247.421"/>
<path class="l4" d="M1453.58 228.683L1467.64 228.683"/>
<path class="l4" d="M1578.5 191.208L1597.24 191.208"/>
<path class="l4" d="M1597.24 191.208L1597.24 209.946"/>
<path class="l4" d="M1590.21 209.946L1641.74 209.946"/>
<path class="l4" d="M1634.72 191.208L1634.72 209.946"/>
<path class="l4" d="M1634.72 191.208L1653.45 191.208"/>
<path class="l4" d="M1597.24 214.63L1634.72 214.63"/>
<path class="l4" d="M1615.98 214.63L1615.98 228.683"/>
<path class="l4" d="M1491.06 278.651L1491.06 297.388"/>
<path class="l4" d="M1472.32 297.388L1491.06 297.388"/>
<path class="l4" d="M1472.32 290.362L1472.32 341.891"/>
<path class="l4" d="M1472.32 334.864L1491.06 334.864"/>
<path class="l4" d="M1491.06 334.864L1491.06 353.602"/>
<path class="l4" d="M1467.64 297.388L1467.64 334.864"/>
<path class="l4" d="M1453.58 316.126L1467.64 316.126"/>
<path class="l4" d="M1590.99 278.651L1590.99 297.388"/>
<path class="l4" d="M1572.26 297.388L1590.99 297.388"/>
<path class="l4" d="M1572.26 290.362L1572.26 341.891"/>
<path class="l4" d="M1572.26 334.864L1590.99 334.864"/>
<path class="l4" d="M1590.99 334.864L1590.99 353.602"/>
<path class="l4" d="M1567.57 297.388L1567.57 334.864"/>
<path class="l4" d="M1553.52 316.126L1567.57 316.126"/>
<path class="l4" d="M1703.42 191.208L1703.42 209.946"/>
<path class="l4" d="M1684.68 209.946L1703.42 209.946"/>
<path class="l4" d="M1684.68 202.919L1684.68 254.448"/>
<path class="l4" d="M1684.68 247.421L1703.42 247.421"/>
<path class="l4" d="M1703.42 247.421L1703.42 266.159"/>
<path class="l4" d="M1680 209.946L1680 247.421"/>
<path class="l4" d="M1665.94 228.683L1680 228.683"/>
<path class="l4" d="M341.813 640.913L366.796 640.913"/>
<path class="l4" d="M216.895 703.372L316.829 640.913"/>
<path class="l4" d="M216.895 578.454L316.829 640.913"/>
<path class="l4" d="M216.895 578.454L216.895 703.372"/>
<path class="l4" d="M179.419 640.913L216.895 640.913"/>
<circle class="l4" cx="329.321" cy="640.913" r="12.4918" style="fill:none;"/>
<path class="l4" d="M554.174 640.913L579.157 640.913"/>
<path class="l4" d="M429.256 703.372L529.19 640.913"/>
<path class="l4" d="M429.256 578.454L529.19 640.913"/>
<path class="l4" d="M429.256 578.454L429.256 703.372"/>
<path class="l4" d="M391.78 640.913L429.256 640.913"/>
<circle class="l4" cx="541.682" cy="640.913" r="12.4918" style="fill:none;"/>
<path class="l4" d="M766.534 640.913L791.518 640.913"/>
<path class="l4" d="M641.616 703.372L741.551 640.913"/>
<path class="l4" d="M641.616 578.454L741.551 640.913"/>
<path class="l4" d="M641.616 578.454L641.616 703.372"/>
<path class="l4" d="M604.141 640.913L641.616 640.913"/>
<circle class="l4" cx="754.043" cy="640.913" r="12.4918" style="fill:none;"/>
<path class="l4" d="M978.895 640.913L1003.88 640.913"/>
<path class="l4" d="M853.977 703.372L953.912 640.913"/>
<path class="l4" d="M853.977 578.454L953.912 640.913"/>
<path class="l4" d="M853.977 578.454L853.977 703.372"/>
<path class="l4" d="M816.502 640.913L853.977 640.913"/>
<circle class="l4" cx="966.403" cy="640.913" r="12.4918" style="fill:none;"/>
<path class="l4" d="M1191.26 640.913L1216.24 640.913"/>
<path class="l4" d="M1066.34 703.372L1166.27 640.913"/>
<path class="l4" d="M1066.34 578.454L1166.27 640.913"/>
<path class="l4" d="M1066.34 578.454L1066.34 703.372"/>
<path class="l4" d="M1028.86 640.913L1066.34 640.913"/>
<circle class="l4" cx="1178.76" cy="640.913" r="12.4918" style="fill:none;"/>
<path class="l4" d="M1403.62 640.913L1428.6 640.913"/>
<path class="l4" d="M1278.7 703.372L1378.63 640.913"/>
<path class="l4" d="M1278.7 578.454L1378.63 640.913"/>
<path class="l4" d="M1278.7 578.454L1278.7 703.372"/>
<path class="l4" d="M1241.22 640.913L1278.7 640.913"/>
<circle class="l4" cx="1391.13" cy="640.913" r="12.4918" style="fill:none;"/>
<path class="l4" d="M1615.98 640.913L1640.96 640.913"/>
<path class="l4" d="M1491.06 703.372L1590.99 640.913"/>
<path class="l4" d="M1491.06 578.454L1590.99 640.913"/>
<path class="l4" d="M1491.06 578.454L1491.06 703.372"/>
<path class="l4" d="M1453.58 640.913L1491.06 640.913"/>
<circle class="l4" cx="1603.49" cy="640.913" r="12.4918" style="fill:none;"/>
<path class="l4" d="M42.0094 191.208L42.0094 203.7"/>
<path class="l4" d="M30.2983 191.208L53.7205 191.208"/>
<circle class="l4" cx="42.0094" cy="191.208" r="4.37213" />
<path class="l5" d="M216.27 190.583L217.519 190.583L217.519 191.833L216.27 191.833L216.27 190.583z"/>
<path class="l5" d="M178.795 228.059L180.044 228.059L180.044 229.308L178.795 229.308L178.795 228.059z"/>
<path class="l5" d="M216.27 265.534L217.519 265.534L217.519 266.784L216.27 266.784L216.27 265.534z"/>
<path class="l5" d="M303.713 190.583L304.962 190.583L304.962 191.833L303.713 191.833L303.713 190.583z"/>
<path class="l5" d="M341.188 228.059L342.437 228.059L342.437 229.308L341.188 229.308L341.188 228.059z"/>
<path class="l5" d="M378.664 190.583L379.913 190.583L379.913 191.833L378.664 191.833L378.664 190.583z"/>
<path class="l5" d="M428.631 190.583L429.88 190.583L429.88 191.833L428.631 191.833L428.631 190.583z"/>
<path class="l5" d="M391.156 228.059L392.405 228.059L392.405 229.308L391.156 229.308L391.156 228.059z"/>
<path class="l5" d="M428.631 265.534L429.88 265.534L429.88 266.784L428.631 266.784L428.631 265.534z"/>
<path class="l5" d="M516.074 190.583L517.323 190.583L517.323 191.833L516.074 191.833L516.074 190.583z"/>
<path class="l5" d="M553.549 228.059L554.798 228.059L554.798 229.308L553.549 229.308L553.549 228.059z"/>
<path class="l5" d="M591.025 190.583L592.274 190.583L592.274 191.833L591.025 191.833L591.025 190.583z"/>
<path class="l5" d="M428.631 278.026L429.88 278.026L429.88 279.275L428.631 279.275L428.631 278.026z"/>
<path class="l5" d="M391.156 315.502L392.405 315.502L392.405 316.751L391.156 316.751L391.156 315.502z"/>
<path class="l5" d="M428.631 352.977L429.88 352.977L429.88 354.226L428.631 354.226L428.631 352.977z"/>
<path class="l5" d="M528.565 278.026L529.815 278.026L529.815 279.275L528.565 279.275L528.565 278.026z"/>
<path class="l5" d="M491.09 315.502L492.339 315.502L492.339 316.751L491.09 316.751L491.09 315.502z"/>
<path class="l5" d="M528.565 352.977L529.815 352.977L529.815 354.226L528.565 354.226L528.565 352.977z"/>
<path class="l5" d="M216.27 278.026L217.519 278.026L217.519 279.275L216.27 279.275L216.27 278.026z"/>
<path class="l5" d="M178.795 315.502L180.044 315.502L180.044 316.751L178.795 316.751L178.795 315.502z"/>
<path class="l5" d="M216.27 352.977L217.519 352.977L217.519 354.226L216.27 354.226L216.27 352.977z"/>
<path class="l5" d="M316.205 278.026L317.454 278.026L317.454 279.275L316.205 279.275L316.205 278.026z"/>
<path class="l5" d="M278.729 315.502L279.978 315.502L279.978 316.751L278.729 316.751L278.729 315.502z"/>
<path class="l5" d="M316.205 352.977L317.454 352.977L317.454 354.226L316.205 354.226L316.205 352.977z"/>
<path class="l5" d="M640.992 190.583L642.241 190.583L642.241 191.833L640.992 191.833L640.992 190.583z"/>
<path class="l5" d="M603.516 228.059L604.766 228.059L604.766 229.308L603.516 229.308L603.516 228.059z"/>
<path class="l5" d="M640.992 265.534L642.241 265.534L642.241 266.784L640.992 266.784L640.992 265.534z"/>
<path class="l5" d="M728.434 190.583L729.684 190.583L729.684 191.833L728.434 191.833L728.434 190.583z"/>
<path class="l5" d="M765.91 228.059L767.159 228.059L767.159 229.308L765.91 229.308L765.91 228.059z"/>
<path class="l5" d="M803.385 190.583L804.635 190.583L804.635 191.833L803.385 191.833L803.385 190.583z"/>
<path class="l5" d="M640.992 278.026L642.241 278.026L642.241 279.275L640.992 279.275L640.992 278.026z"/>
<path class="l5" d="M603.516 315.502L604.766 315.502L604.766 316.751L603.516 316.751L603.516 315.502z"/>
<path class="l5" d="M640.992 352.977L642.241 352.977L642.241 354.226L640.992 354.226L640.992 352.977z"/>
<path class="l5" d="M740.926 278.026L742.175 278.026L742.175 279.275L740.926 279.275L740.926 278.026z"/>
<path class="l5" d="M703.451 315.502L704.7 315.502L704.7 316.751L703.451 316.751L703.451 315.502z"/>
<path class="l5" d="M740.926 352.977L742.175 352.977L742.175 354.226L740.926 354.226L740.926 352.977z"/>
<path class="l5" d="M853.353 190.583L854.602 190.583L854.602 191.833L853.353 191.833L853.353 190.583z"/>
<path class="l5" d="M815.877 228.059L817.126 228.059L817.126 229.308L815.877 229.308L815.877 228.059z"/>
<path class="l5" d="M853.353 265.534L854.602 265.534L854.602 266.784L853.353 266.784L853.353 265.534z"/>
<path class="l5" d="M940.795 190.583L942.044 190.583L942.044 191.833L940.795 191.833L940.795 190.583z"/>
<path class="l5" d="M978.271 228.059L979.52 228.059L979.52 229.308L978.271 229.308L978.271 228.059z"/>
<path class="l5" d="M1015.75 190.583L1017 190.583L1017 191.833L1015.75 191.833L1015.75 190.583z"/>
<path class="l5" d="M853.353 278.026L854.602 278.026L854.602 279.275L853.353 279.275L853.353 278.026z"/>
<path class="l5" d="M815.877 315.502L817.126 315.502L817.126 316.751L815.877 316.751L815.877 315.502z"/>
<path class="l5" d="M853.353 352.977L854.602 352.977L854.602 354.226L853.353 354.226L853.353 352.977z"/>
<path class="l5" d="M953.287 278.026L954.536 278.026L954.536 279.275L953.287 279.275L953.287 278.026z"/>
<path class="l5" d="M915.812 315.502L917.061 315.502L917.061 316.751L915.812 316.751L915.812 315.502z"/>
<path class="l5" d="M953.287 352.977L954.536 352.977L954.536 354.226L953.287 354.226L953.287 352.977z"/>
<path class="l5" d="M1065.71 190.583L1066.96 190.583L1066.96 191.833L1065.71 191.833L1065.71 190.583z"/>
<path class="l5" d="M1028.24 228.059L1029.49 228.059L1029.49 229.308L1028.24 229.308L1028.24 228.059z"/>
<path class="l5" d="M1065.71 265.534L1066.96 265.534L1066.96 266.784L1065.71 266.784L1065.71 265.534z"/>
<path class="l5" d="M1153.16 190.583L1154.41 190.583L1154.41 191.833L1153.16 191.833L1153.16 190.583z"/>
<path class="l5" d="M1190.63 228.059L1191.88 228.059L1191.88 229.308L1190.63 229.308L1190.63 228.059z"/>
<path class="l5" d="M1228.11 190.583L1229.36 190.583L1229.36 191.833L1228.11 191.833L1228.11 190.583z"/>
<path class="l5" d="M1065.71 278.026L1066.96 278.026L1066.96 279.275L1065.71 279.275L1065.71 278.026z"/>
<path class="l5" d="M1028.24 315.502L1029.49 315.502L1029.49 316.751L1028.24 316.751L1028.24 315.502z"/>
<path class="l5" d="M1065.71 352.977L1066.96 352.977L1066.96 354.226L1065.71 354.226L1065.71 352.977z"/>
<path class="l5" d="M1165.65 278.026L1166.9 278.026L1166.9 279.275L1165.65 279.275L1165.65 278.026z"/>
<path class="l5" d="M1128.17 315.502L1129.42 315.502L1129.42 316.751L1128.17 316.751L1128.17 315.502z"/>
<path class="l5" d="M1165.65 352.977L1166.9 352.977L1166.9 354.226L1165.65 354.226L1165.65 352.977z"/>
<path class="l5" d="M1278.07 190.583L1279.32 190.583L1279.32 191.833L1278.07 191.833L1278.07 190.583z"/>
<path class="l5" d="M1240.6 228.059L1241.85 228.059L1241.85 229.308L1240.6 229.308L1240.6 228.059z"/>
<path class="l5" d="M1278.07 265.534L1279.32 265.534L1279.32 266.784L1278.07 266.784L1278.07 265.534z"/>
<path class="l5" d="M1365.52 190.583L1366.77 190.583L1366.77 191.833L1365.52 191.833L1365.52 190.583z"/>
<path class="l5" d="M1402.99 228.059L1404.24 228.059L1404.24 229.308L1402.99 229.308L1402.99 228.059z"/>
<path class="l5" d="M1440.47 190.583L1441.72 190.583L1441.72 191.833L1440.47 191.833L1440.47 190.583z"/>
<path class="l5" d="M1278.07 278.026L1279.32 278.026L1279.32 279.275L1278.07 279.275L1278.07 278.026z"/>
<path class="l5" d="M1240.6 315.502L1241.85 315.502L1241.85 316.751L1240.6 316.751L1240.6 315.502z"/>
<path class="l5" d="M1278.07 352.977L1279.32 352.977L1279.32 354.226L1278.07 354.226L1278.07 352.977z"/>
<path class="l5" d="M1378.01 278.026L1379.26 278.026L1379.26 279.275L1378.01 279.275L1378.01 278.026z"/>
<path class="l5" d="M1340.53 315.502L1341.78 315.502L1341.78 316.751L1340.53 316.751L1340.53 315.502z"/>
<path class="l5" d="M1378.01 352.977L1379.26 352.977L1379.26 354.226L1378.01 354.226L1378.01 352.977z"/>
<path class="l5" d="M1490.43 190.583L1491.68 190.583L1491.68 191.833L1490.43 191.833L1490.43 190.583z"/>
<path class="l5" d="M1452.96 228.059L1454.21 228.059L1454.21 229.308L1452.96 229.308L1452.96 228.059z"/>
<path class="l5" d="M1490.43 265.534L1491.68 265.534L1491.68 266.784L1490.43 266.784L1490.43 265.534z"/>
<path class="l5" d="M1577.88 190.583L1579.13 190.583L1579.13 191.833L1577.88 191.833L1577.88 190.583z"/>
<path class="l5" d="M1615.35 228.059L1616.6 228.059L1616.6 229.308L1615.35 229.308L1615.35 228.059z"/>
<path class="l5" d="M1652.83 190.583L1654.08 190.583L1654.08 191.833L1652.83 191.833L1652.83 190.583z"/>
<path class="l5" d="M1490.43 278.026L1491.68 278.026L1491.68 279.275L1490.43 279.275L1490.43 278.026z"/>
<path class="l5" d="M1452.96 315.502L1454.21 315.502L1454.21 316.751L1452.96 316.751L1452.96 315.502z"/>
<path class="l5" d="M1490.43 352.977L1491.68 352.977L1491.68 354.226L1490.43 354.226L1490.43 352.977z"/>
<path class="l5" d="M1590.37 278.026L1591.62 278.026L1591.62 279.275L1590.37 279.275L1590.37 278.026z"/>
<path class="l5" d="M1552.89 315.502L1554.14 315.502L1554.14 316.751L1552.89 316.751L1552.89 315.502z"/>
<path class="l5" d="M1590.37 352.977L1591.62 352.977L1591.62 354.226L1590.37 354.226L1590.37 352.977z"/>
<path class="l5" d="M1702.8 190.583L1704.04 190.583L1704.04 191.833L1702.8 191.833L1702.8 190.583z"/>
<path class="l5" d="M1665.32 228.059L1666.57 228.059L1666.57 229.308L1665.32 229.308L1665.32 228.059z"/>
<path class="l5" d="M1702.8 265.534L1704.04 265.534L1704.04 266.784L1702.8 266.784L1702.8 265.534z"/>
<path class="l5" d="M179.419 840.782L179.419 847.028"/>
<path class="l5" d="M179.419 847.028L185.665 851.713L185.665 862.643L179.419 857.959L173.173 862.643L173.173 851.713L179.419 847.028"/>
<path class="l5" d="M177.858 839.221L180.981 839.221L180.981 842.344L177.858 842.344L177.858 839.221z"/>
<path class="l5" d="M391.78 840.782L391.78 847.028"/>
<path class="l5" d="M391.78 847.028L385.534 851.713L385.534 862.643L391.78 857.959L398.026 862.643L398.026 851.713L391.78 847.028"/>
<path class="l5" d="M390.219 839.221L393.342 839.221L393.342 842.344L390.219 842.344L390.219 839.221z"/>
<path class="l5" d="M604.141 840.782L604.141 847.028"/>
<path class="l5" d="M604.141 847.028L597.895 851.713L597.895 862.643L604.141 857.959L610.387 862.643L610.387 851.713L604.141 847.028"/>
<path class="l5" d="M602.579 839.221L605.702 839.221L605.702 842.344L602.579 842.344L602.579 839.221z"/>
<path class="l5" d="M816.502 840.782L816.502 847.028"/>
<path class="l5" d="M816.502 847.028L810.256 851.713L810.256 862.643L816.502 857.959L822.748 862.643L822.748 851.713L816.502 847.028"/>
<path class="l5" d="M814.94 839.221L818.063 839.221L818.063 842.344L814.94 842.344L814.94 839.221z"/>
<path class="l5" d="M1028.86 840.782L1028.86 847.028"/>
<path class="l5" d="M1028.86 847.028L1022.62 851.713L1022.62 862.643L1028.86 857.959L1035.11 862.643L1035.11 851.713L1028.86 847.028"/>
<path class="l5" d="M1027.3 839.221L1030.42 839.221L1030.42 842.344L1027.3 842.344L1027.3 839.221z"/>
<path class="l5" d="M1241.22 853.274L1241.22 859.52"/>
<path class="l5" d="M1241.22 859.52L1234.98 864.204L1234.98 875.135L1241.22 870.45L1247.47 875.135L1247.47 864.204L1241.22 859.52"/>
<path class="l5" d="M1239.66 851.713L1242.78 851.713L1242.78 854.836L1239.66 854.836L1239.66 851.713z"/>
<path class="l5" d="M1453.58 853.274L1453.58 859.52"/>
<path class="l5" d="M1453.58 859.52L1447.34 864.204L1447.34 875.135L1453.58 870.45L1459.83 875.135L1459.83 864.204L1453.58 859.52"/>
<path class="l5" d="M1452.02 851.713L1455.15 851.713L1455.15 854.836L1452.02 854.836L1452.02 851.713z"/>
<path class="l5" d="M363.674 637.79L369.919 637.79L369.919 644.036L363.674 644.036L363.674 637.79z"/>
<path class="l5" d="M176.296 637.79L182.542 637.79L182.542 644.036L176.296 644.036L176.296 637.79z"/>
<path class="l5" d="M576.034 637.79L582.28 637.79L582.28 644.036L576.034 644.036L576.034 637.79z"/>
<path class="l5" d="M388.657 637.79L394.903 637.79L394.903 644.036L388.657 644.036L388.657 637.79z"/>
<path class="l5" d="M788.395 637.79L794.641 637.79L794.641 644.036L788.395 644.036L788.395 637.79z"/>
<path class="l5" d="M601.018 637.79L607.264 637.79L607.264 644.036L601.018 644.036L601.018 637.79z"/>
<path class="l5" d="M1000.76 637.79L1007 637.79L1007 644.036L1000.76 644.036L1000.76 637.79z"/>
<path class="l5" d="M813.379 637.79L819.625 637.79L819.625 644.036L813.379 644.036L813.379 637.79z"/>
<path class="l5" d="M1213.12 637.79L1219.36 637.79L1219.36 644.036L1213.12 644.036L1213.12 637.79z"/>
<path class="l5" d="M1025.74 637.79L1031.99 637.79L1031.99 644.036L1025.74 644.036L1025.74 637.79z"/>
<path class="l5" d="M1425.48 637.79L1431.72 637.79L1431.72 644.036L1425.48 644.036L1425.48 637.79z"/>
<path class="l5" d="M1238.1 637.79L1244.35 637.79L1244.35 644.036L1238.1 644.036L1238.1 637.79z"/>
<path class="l5" d="M1637.84 637.79L1644.08 637.79L1644.08 644.036L1637.84 644.036L1637.84 637.79z"/>
<path class="l5" d="M1450.46 637.79L1456.71 637.79L1456.71 644.036L1450.46 644.036L1450.46 637.79z"/>
<path class="l5" d="M138.04 191.208L141.944 191.208"/>
<path class="l5" d="M124.768 184.962L120.083 191.208L124.768 197.454L133.356 197.454L138.04 191.208L133.356 184.962L124.768 184.962"/>
<path class="l5" d="M140.382 189.647L143.505 189.647L143.505 192.77L140.382 192.77L140.382 189.647z"/>
<path class="l5" d="M1728.4 403.569L1739.33 403.569"/>
<path class="l5" d="M1750.26 403.569L1745.58 397.323L1734.65 397.323L1739.33 403.569L1734.65 409.815L1745.58 409.815L1750.26 403.569"/>
<path class="l5" d="M1726.84 402.007L1729.97 402.007L1729.97 405.13L1726.84 405.13L1726.84 402.007z"/>
<path class="l5" d="M1728.4 441.044L1739.33 441.044"/>
<path class="l5" d="M1750.26 441.044L1745.58 434.798L1734.65 434.798L1739.33 441.044L1734.65 447.29L1745.58 447.29L1750.26 441.044"/>
<path class="l5" d="M1726.84 439.483L1729.97 439.483L1729.97 442.606L1726.84 442.606L1726.84 439.483z"/>
<path class="l5" d="M41.3848 203.075L42.634 203.075L42.634 204.324L41.3848 204.324L41.3848 203.075z"/>
<path class="l1" d="M216.895 191.208L304.337 191.208"/>
<path class="l1" d="M216.895 266.159L216.895 278.651"/>
<path class="l1" d="M216.895 353.602L216.895 378.585"/>
<path class="l1" d="M429.256 191.208L516.698 191.208"/>
<path class="l1" d="M429.256 266.159L429.256 278.651"/>
<path class="l1" d="M379.288 191.208L429.256 191.208"/>
<path class="l1" d="M216.895 278.651L316.829 278.651"/>
<path class="l1" d="M429.256 266.159L429.256 278.651"/>
<path class="l1" d="M429.256 353.602L429.256 378.585"/>
<path class="l1" d="M529.19 353.602L529.19 378.585"/>
<path class="l1" d="M429.256 278.651L529.19 278.651"/>
<path class="l1" d="M216.895 266.159L216.895 278.651"/>
<path class="l1" d="M216.895 353.602L216.895 378.585"/>
<path class="l1" d="M316.829 353.602L316.829 378.585"/>
<path class="l1" d="M216.895 278.651L316.829 278.651"/>
<path class="l1" d="M641.616 191.208L729.059 191.208"/>
<path class="l1" d="M641.616 266.159L641.616 278.651"/>
<path class="l1" d="M591.649 191.208L641.616 191.208"/>
<path class="l1" d="M641.616 266.159L641.616 278.651"/>
<path class="l1" d="M641.616 353.602L641.616 378.585"/>
<path class="l1" d="M741.551 353.602L741.551 378.585"/>
<path class="l1" d="M641.616 278.651L741.551 278.651"/>
<path class="l1" d="M853.977 191.208L941.42 191.208"/>
<path class="l1" d="M853.977 266.159L853.977 278.651"/>
<path class="l1" d="M804.01 191.208L853.977 191.208"/>
<path class="l1" d="M853.977 266.159L853.977 278.651"/>
<path class="l1" d="M853.977 353.602L853.977 378.585"/>
<path class="l1" d="M953.912 353.602L953.912 378.585"/>
<path class="l1" d="M853.977 278.651L953.912 278.651"/>
<path class="l1" d="M1066.34 191.208L1153.78 191.208"/>
<path class="l1" d="M1066.34 266.159L1066.34 278.651"/>
<path class="l1" d="M1016.37 191.208L1066.34 191.208"/>
<path class="l1" d="M1066.34 266.159L1066.34 278.651"/>
<path class="l1" d="M1066.34 353.602L1066.34 378.585"/>
<path class="l1" d="M1166.27 353.602L1166.27 378.585"/>
<path class="l1" d="M1066.34 278.651L1166.27 278.651"/>
<path class="l1" d="M1278.7 191.208L1366.14 191.208"/>
<path class="l1" d="M1278.7 266.159L1278.7 278.651"/>
<path class="l1" d="M1228.73 191.208L1278.7 191.208"/>
<path class="l1" d="M1278.7 266.159L1278.7 278.651"/>
<path class="l1" d="M1278.7 353.602L1278.7 378.585"/>
<path class="l1" d="M1378.63 353.602L1378.63 378.585"/>
<path class="l1" d="M1278.7 278.651L1378.63 278.651"/>
<path class="l1" d="M1491.06 191.208L1578.5 191.208"/>
<path class="l1" d="M1491.06 266.159L1491.06 278.651"/>
<path class="l1" d="M1441.09 191.208L1491.06 191.208"/>
<path class="l1" d="M1491.06 266.159L1491.06 278.651"/>
<path class="l1" d="M1491.06 353.602L1491.06 378.585"/>
<path class="l1" d="M1590.99 353.602L1590.99 378.585"/>
<path class="l1" d="M1491.06 278.651L1590.99 278.651"/>
<path class="l1" d="M1653.45 191.208L1703.42 191.208"/>
<path class="l1" d="M216.895 378.585L216.895 441.044"/>
<path class="l1" d="M216.895 441.044L429.256 441.044"/>
<path class="l1" d="M429.256 378.585L429.256 441.044"/>
<path class="l1" d="M429.256 441.044L641.616 441.044"/>
<path class="l1" d="M641.616 378.585L641.616 441.044"/>
<path class="l1" d="M853.977 378.585L853.977 441.044"/>
<path class="l1" d="M641.616 441.044L853.977 441.044"/>
<path class="l1" d="M1066.34 378.585L1066.34 441.044"/>
<path class="l1" d="M853.977 441.044L1066.34 441.044"/>
<path class="l1" d="M1278.7 378.585L1278.7 441.044"/>
<path class="l1" d="M1066.34 441.044L1278.7 441.044"/>
<path class="l1" d="M1491.06 378.585L1491.06 441.044"/>
<path class="l1" d="M1278.7 441.044L1491.06 441.044"/>
<path class="l1" d="M316.829 378.585L316.829 403.569"/>
<path class="l1" d="M316.829 403.569L529.19 403.569"/>
<path class="l1" d="M529.19 378.585L529.19 403.569"/>
<path class="l1" d="M529.19 403.569L741.551 403.569"/>
<path class="l1" d="M741.551 378.585L741.551 403.569"/>
<path class="l1" d="M741.551 403.569L953.912 403.569"/>
<path class="l1" d="M953.912 378.585L953.912 403.569"/>
<path class="l1" d="M1166.27 378.585L1166.27 403.569"/>
<path class="l1" d="M953.912 403.569L1728.4 403.569"/>
<path class="l1" d="M1378.63 378.585L1378.63 403.569"/>
<path class="l1" d="M1590.99 378.585L1590.99 403.569"/>
<path class="l1" d="M1703.42 266.159L1703.42 403.569"/>
<path class="l1" d="M141.944 191.208L216.895 191.208"/>
<path class="l1" d="M179.419 228.683L341.813 228.683"/>
<path class="l1" d="M341.813 228.683L391.78 228.683"/>
<path class="l1" d="M391.78 228.683L554.174 228.683"/>
<path class="l1" d="M554.174 228.683L604.141 228.683"/>
<path class="l1" d="M604.141 228.683L766.534 228.683"/>
<path class="l1" d="M766.534 228.683L816.502 228.683"/>
<path class="l1" d="M154.436 228.683L179.419 228.683"/>
<path class="l1" d="M179.419 316.126L179.419 628.421"/>
<path class="l1" d="M391.78 316.126L391.78 628.421"/>
<path class="l1" d="M604.141 316.126L604.141 615.93"/>
<path class="l1" d="M604.141 615.93L604.141 628.421"/>
<path class="l1" d="M816.502 316.126L816.502 628.421"/>
<path class="l1" d="M1028.86 316.126L1028.86 628.421"/>
<path class="l1" d="M1241.22 316.126L1241.22 628.421"/>
<path class="l1" d="M1453.58 316.126L1453.58 628.421"/>
<path class="l1" d="M141.944 228.683L154.436 228.683"/>
<path class="l1" d="M816.502 228.683L1665.94 228.683"/>
<path class="l1" d="M179.419 628.421L179.419 840.782"/>
<path class="l1" d="M391.78 628.421L391.78 840.782"/>
<path class="l1" d="M604.141 628.421L604.141 840.782"/>
<path class="l1" d="M816.502 628.421L816.502 840.782"/>
<path class="l1" d="M1028.86 628.421L1028.86 828.29"/>
<path class="l1" d="M1241.22 628.421L1241.22 828.29"/>
<path class="l1" d="M1453.58 628.421L1453.58 828.29"/>
<path class="l1" d="M1491.06 441.044L1728.4 441.044"/>
<path class="l1" d="M1028.86 828.29L1028.86 840.782"/>
<path class="l1" d="M1241.22 828.29L1241.22 853.274"/>
<path class="l1" d="M1453.58 828.29L1453.58 853.274"/>
<path class="l1" d="M279.354 316.126L279.354 491.012"/>
<path class="l1" d="M279.354 491.012L366.796 491.012"/>
<path class="l1" d="M366.796 491.012L366.796 640.913"/>
<path class="l1" d="M491.715 316.126L491.715 478.52"/>
<path class="l1" d="M491.715 478.52L491.715 491.012"/>
<path class="l1" d="M491.715 491.012L579.157 491.012"/>
<path class="l1" d="M579.157 491.012L579.157 640.913"/>
<path class="l1" d="M704.075 316.126L704.075 491.012"/>
<path class="l1" d="M704.075 491.012L791.518 491.012"/>
<path class="l1" d="M791.518 491.012L791.518 640.913"/>
<path class="l1" d="M916.436 316.126L916.436 491.012"/>
<path class="l1" d="M916.436 491.012L1003.88 491.012"/>
<path class="l1" d="M1003.88 491.012L1003.88 640.913"/>
<path class="l1" d="M1128.8 316.126L1128.8 491.012"/>
<path class="l1" d="M1128.8 491.012L1216.24 491.012"/>
<path class="l1" d="M1216.24 491.012L1216.24 640.913"/>
<path class="l1" d="M1341.16 316.126L1341.16 491.012"/>
<path class="l1" d="M1341.16 491.012L1416.11 491.012"/>
<path class="l1" d="M1416.11 491.012L1428.6 491.012"/>
<path class="l1" d="M1428.6 491.012L1428.6 640.913"/>
<path class="l1" d="M1553.52 316.126L1553.52 491.012"/>
<path class="l1" d="M1553.52 491.012L1640.96 491.012"/>
<path class="l1" d="M1640.96 491.012L1640.96 640.913"/>
<path class="l1" d="M42.0094 203.7L42.0094 228.683"/>
<path class="l1" d="M42.0094 228.683L141.944 228.683"/>
<circle class="l1" cx="529.19" cy="403.569" r="4.99672"/>
<circle class="l1" cx="429.256" cy="441.044" r="4.99672"/>
<circle class="l1" cx="216.895" cy="378.585" r="4.99672"/>
<circle class="l1" cx="216.895" cy="278.651" r="4.99672"/>
<circle class="l1" cx="216.895" cy="378.585" r="4.99672"/>
<circle class="l1" cx="216.895" cy="278.651" r="4.99672"/>
<circle class="l1" cx="216.895" cy="278.651" r="4.99672"/>
<circle class="l1" cx="216.895" cy="378.585" r="4.99672"/>
<circle class="l1" cx="216.895" cy="278.651" r="4.99672"/>
<circle class="l1" cx="741.551" cy="403.569" r="4.99672"/>
<circle class="l1" cx="953.912" cy="403.569" r="4.99672"/>
<circle class="l1" cx="741.551" cy="403.569" r="4.99672"/>
<circle class="l1" cx="529.19" cy="403.569" r="4.99672"/>
<circle class="l1" cx="741.551" cy="403.569" r="4.99672"/>
<circle class="l1" cx="529.19" cy="403.569" r="4.99672"/>
<circle class="l1" cx="853.977" cy="441.044" r="4.99672"/>
<circle class="l1" cx="1066.34" cy="441.044" r="4.99672"/>
<circle class="l1" cx="641.616" cy="441.044" r="4.99672"/>
<circle class="l1" cx="853.977" cy="441.044" r="4.99672"/>
<circle class="l1" cx="853.977" cy="441.044" r="4.99672"/>
<circle class="l1" cx="641.616" cy="441.044" r="4.99672"/>
<circle class="l1" cx="429.256" cy="441.044" r="4.99672"/>
<circle class="l1" cx="641.616" cy="441.044" r="4.99672"/>
<circle class="l1" cx="429.256" cy="441.044" r="4.99672"/>
<circle class="l1" cx="853.977" cy="278.651" r="4.99672"/>
<circle class="l1" cx="853.977" cy="278.651" r="4.99672"/>
<circle class="l1" cx="853.977" cy="278.651" r="4.99672"/>
<circle class="l1" cx="641.616" cy="278.651" r="4.99672"/>
<circle class="l1" cx="641.616" cy="278.651" r="4.99672"/>
<circle class="l1" cx="641.616" cy="278.651" r="4.99672"/>
<circle class="l1" cx="429.256" cy="278.651" r="4.99672"/>
<circle class="l1" cx="429.256" cy="278.651" r="4.99672"/>
<circle class="l1" cx="429.256" cy="278.651" r="4.99672"/>
<circle class="l1" cx="1378.63" cy="403.569" r="4.99672"/>
<circle class="l1" cx="953.912" cy="403.569" r="4.99672"/>
<circle class="l1" cx="1166.27" cy="403.569" r="4.99672"/>
<circle class="l1" cx="953.912" cy="403.569" r="4.99672"/>
<circle class="l1" cx="1278.7" cy="441.044" r="4.99672"/>
<circle class="l1" cx="1491.06" cy="441.044" r="4.99672"/>
<circle class="l1" cx="1066.34" cy="441.044" r="4.99672"/>
<circle class="l1" cx="1278.7" cy="441.044" r="4.99672"/>
<circle class="l1" cx="1278.7" cy="441.044" r="4.99672"/>
<circle class="l1" cx="1066.34" cy="441.044" r="4.99672"/>
<circle class="l1" cx="1278.7" cy="278.651" r="4.99672"/>
<circle class="l1" cx="1278.7" cy="278.651" r="4.99672"/>
<circle class="l1" cx="1278.7" cy="278.651" r="4.99672"/>
<circle class="l1" cx="1066.34" cy="278.651" r="4.99672"/>
<circle class="l1" cx="1066.34" cy="278.651" r="4.99672"/>
<circle class="l1" cx="1066.34" cy="278.651" r="4.99672"/>
<circle class="l1" cx="1491.06" cy="441.044" r="4.99672"/>
<circle class="l1" cx="1703.42" cy="403.569" r="4.99672"/>
<circle class="l1" cx="1590.99" cy="403.569" r="4.99672"/>
<circle class="l1" cx="1491.06" cy="441.044" r="4.99672"/>
<circle class="l1" cx="1491.06" cy="278.651" r="4.99672"/>
<circle class="l1" cx="1491.06" cy="278.651" r="4.99672"/>
<circle class="l1" cx="1491.06" cy="278.651" r="4.99672"/>
</svg>
