<?xml version="1.0" encoding="utf-8" standalone="no"?>
<!DOCTYPE svg PUBLIC "-//W3C//DTD SVG 1.1//EN"
  "http://www.w3.org/Graphics/SVG/1.1/DTD/svg11.dtd">
<svg xmlns:xlink="http://www.w3.org/1999/xlink" width="460.8pt" height="345.6pt" viewBox="0 0 460.8 345.6" xmlns="http://www.w3.org/2000/svg" version="1.1">
 <metadata>
  <rdf:RDF xmlns:dc="http://purl.org/dc/elements/1.1/" xmlns:cc="http://creativecommons.org/ns#" xmlns:rdf="http://www.w3.org/1999/02/22-rdf-syntax-ns#">
   <cc:Work>
    <dc:type rdf:resource="http://purl.org/dc/dcmitype/StillImage"/>
    <dc:date>2023-11-13T14:25:26.319663</dc:date>
    <dc:format>image/svg+xml</dc:format>
    <dc:creator>
     <cc:Agent>
      <dc:title>Matplotlib v3.5.1, https://matplotlib.org/</dc:title>
     </cc:Agent>
    </dc:creator>
   </cc:Work>
  </rdf:RDF>
 </metadata>
 <defs>
  <style type="text/css">*{stroke-linejoin: round; stroke-linecap: butt}</style>
 </defs>
 <g id="figure_1">
  <g id="patch_1">
   <path d="M 0 345.6 
L 460.8 345.6 
L 460.8 0 
L 0 0 
z
" style="fill: #ffffff"/>
  </g>
  <g id="axes_1">
   <g id="patch_2">
    <path d="M 57.6 307.584 
L 414.72 307.584 
L 414.72 41.472 
L 57.6 41.472 
z
" style="fill: #ffffff"/>
   </g>
   <g id="matplotlib.axis_1">
    <g id="xtick_1">
     <g id="line2d_1">
      <defs>
       <path id="mb0b56bfa92" d="M 0 0 
L 0 3.5 
" style="stroke: #000000; stroke-width: 0.8"/>
      </defs>
      <g>
       <use xlink:href="#mb0b56bfa92" x="73.832727" y="307.584" style="stroke: #000000; stroke-width: 0.8"/>
      </g>
     </g>
     <g id="text_1">
      <!-- 0 -->
      <g transform="translate(70.651477 322.182437)scale(0.1 -0.1)">
       <defs>
        <path id="DejaVuSans-30" d="M 2034 4250 
Q 1547 4250 1301 3770 
Q 1056 3291 1056 2328 
Q 1056 1369 1301 889 
Q 1547 409 2034 409 
Q 2525 409 2770 889 
Q 3016 1369 3016 2328 
Q 3016 3291 2770 3770 
Q 2525 4250 2034 4250 
z
M 2034 4750 
Q 2819 4750 3233 4129 
Q 3647 3509 3647 2328 
Q 3647 1150 3233 529 
Q 2819 -91 2034 -91 
Q 1250 -91 836 529 
Q 422 1150 422 2328 
Q 422 3509 836 4129 
Q 1250 4750 2034 4750 
z
" transform="scale(0.015625)"/>
       </defs>
       <use xlink:href="#DejaVuSans-30"/>
      </g>
     </g>
    </g>
    <g id="xtick_2">
     <g id="line2d_2">
      <g>
       <use xlink:href="#mb0b56bfa92" x="124.959427" y="307.584" style="stroke: #000000; stroke-width: 0.8"/>
      </g>
     </g>
     <g id="text_2">
      <!-- 20 -->
      <g transform="translate(118.596927 322.182437)scale(0.1 -0.1)">
       <defs>
        <path id="DejaVuSans-32" d="M 1228 531 
L 3431 531 
L 3431 0 
L 469 0 
L 469 531 
Q 828 903 1448 1529 
Q 2069 2156 2228 2338 
Q 2531 2678 2651 2914 
Q 2772 3150 2772 3378 
Q 2772 3750 2511 3984 
Q 2250 4219 1831 4219 
Q 1534 4219 1204 4116 
Q 875 4013 500 3803 
L 500 4441 
Q 881 4594 1212 4672 
Q 1544 4750 1819 4750 
Q 2544 4750 2975 4387 
Q 3406 4025 3406 3419 
Q 3406 3131 3298 2873 
Q 3191 2616 2906 2266 
Q 2828 2175 2409 1742 
Q 1991 1309 1228 531 
z
" transform="scale(0.015625)"/>
       </defs>
       <use xlink:href="#DejaVuSans-32"/>
       <use xlink:href="#DejaVuSans-30" x="63.623047"/>
      </g>
     </g>
    </g>
    <g id="xtick_3">
     <g id="line2d_3">
      <g>
       <use xlink:href="#mb0b56bfa92" x="176.086127" y="307.584" style="stroke: #000000; stroke-width: 0.8"/>
      </g>
     </g>
     <g id="text_3">
      <!-- 40 -->
      <g transform="translate(169.723627 322.182437)scale(0.1 -0.1)">
       <defs>
        <path id="DejaVuSans-34" d="M 2419 4116 
L 825 1625 
L 2419 1625 
L 2419 4116 
z
M 2253 4666 
L 3047 4666 
L 3047 1625 
L 3713 1625 
L 3713 1100 
L 3047 1100 
L 3047 0 
L 2419 0 
L 2419 1100 
L 313 1100 
L 313 1709 
L 2253 4666 
z
" transform="scale(0.015625)"/>
       </defs>
       <use xlink:href="#DejaVuSans-34"/>
       <use xlink:href="#DejaVuSans-30" x="63.623047"/>
      </g>
     </g>
    </g>
    <g id="xtick_4">
     <g id="line2d_4">
      <g>
       <use xlink:href="#mb0b56bfa92" x="227.212827" y="307.584" style="stroke: #000000; stroke-width: 0.8"/>
      </g>
     </g>
     <g id="text_4">
      <!-- 60 -->
      <g transform="translate(220.850327 322.182437)scale(0.1 -0.1)">
       <defs>
        <path id="DejaVuSans-36" d="M 2113 2584 
Q 1688 2584 1439 2293 
Q 1191 2003 1191 1497 
Q 1191 994 1439 701 
Q 1688 409 2113 409 
Q 2538 409 2786 701 
Q 3034 994 3034 1497 
Q 3034 2003 2786 2293 
Q 2538 2584 2113 2584 
z
M 3366 4563 
L 3366 3988 
Q 3128 4100 2886 4159 
Q 2644 4219 2406 4219 
Q 1781 4219 1451 3797 
Q 1122 3375 1075 2522 
Q 1259 2794 1537 2939 
Q 1816 3084 2150 3084 
Q 2853 3084 3261 2657 
Q 3669 2231 3669 1497 
Q 3669 778 3244 343 
Q 2819 -91 2113 -91 
Q 1303 -91 875 529 
Q 447 1150 447 2328 
Q 447 3434 972 4092 
Q 1497 4750 2381 4750 
Q 2619 4750 2861 4703 
Q 3103 4656 3366 4563 
z
" transform="scale(0.015625)"/>
       </defs>
       <use xlink:href="#DejaVuSans-36"/>
       <use xlink:href="#DejaVuSans-30" x="63.623047"/>
      </g>
     </g>
    </g>
    <g id="xtick_5">
     <g id="line2d_5">
      <g>
       <use xlink:href="#mb0b56bfa92" x="278.339528" y="307.584" style="stroke: #000000; stroke-width: 0.8"/>
      </g>
     </g>
     <g id="text_5">
      <!-- 80 -->
      <g transform="translate(271.977028 322.182437)scale(0.1 -0.1)">
       <defs>
        <path id="DejaVuSans-38" d="M 2034 2216 
Q 1584 2216 1326 1975 
Q 1069 1734 1069 1313 
Q 1069 891 1326 650 
Q 1584 409 2034 409 
Q 2484 409 2743 651 
Q 3003 894 3003 1313 
Q 3003 1734 2745 1975 
Q 2488 2216 2034 2216 
z
M 1403 2484 
Q 997 2584 770 2862 
Q 544 3141 544 3541 
Q 544 4100 942 4425 
Q 1341 4750 2034 4750 
Q 2731 4750 3128 4425 
Q 3525 4100 3525 3541 
Q 3525 3141 3298 2862 
Q 3072 2584 2669 2484 
Q 3125 2378 3379 2068 
Q 3634 1759 3634 1313 
Q 3634 634 3220 271 
Q 2806 -91 2034 -91 
Q 1263 -91 848 271 
Q 434 634 434 1313 
Q 434 1759 690 2068 
Q 947 2378 1403 2484 
z
M 1172 3481 
Q 1172 3119 1398 2916 
Q 1625 2713 2034 2713 
Q 2441 2713 2670 2916 
Q 2900 3119 2900 3481 
Q 2900 3844 2670 4047 
Q 2441 4250 2034 4250 
Q 1625 4250 1398 4047 
Q 1172 3844 1172 3481 
z
" transform="scale(0.015625)"/>
       </defs>
       <use xlink:href="#DejaVuSans-38"/>
       <use xlink:href="#DejaVuSans-30" x="63.623047"/>
      </g>
     </g>
    </g>
    <g id="xtick_6">
     <g id="line2d_6">
      <g>
       <use xlink:href="#mb0b56bfa92" x="329.466228" y="307.584" style="stroke: #000000; stroke-width: 0.8"/>
      </g>
     </g>
     <g id="text_6">
      <!-- 100 -->
      <g transform="translate(319.922478 322.182437)scale(0.1 -0.1)">
       <defs>
        <path id="DejaVuSans-31" d="M 794 531 
L 1825 531 
L 1825 4091 
L 703 3866 
L 703 4441 
L 1819 4666 
L 2450 4666 
L 2450 531 
L 3481 531 
L 3481 0 
L 794 0 
L 794 531 
z
" transform="scale(0.015625)"/>
       </defs>
       <use xlink:href="#DejaVuSans-31"/>
       <use xlink:href="#DejaVuSans-30" x="63.623047"/>
       <use xlink:href="#DejaVuSans-30" x="127.246094"/>
      </g>
     </g>
    </g>
    <g id="xtick_7">
     <g id="line2d_7">
      <g>
       <use xlink:href="#mb0b56bfa92" x="380.592928" y="307.584" style="stroke: #000000; stroke-width: 0.8"/>
      </g>
     </g>
     <g id="text_7">
      <!-- 120 -->
      <g transform="translate(371.049178 322.182437)scale(0.1 -0.1)">
       <use xlink:href="#DejaVuSans-31"/>
       <use xlink:href="#DejaVuSans-32" x="63.623047"/>
       <use xlink:href="#DejaVuSans-30" x="127.246094"/>
      </g>
     </g>
    </g>
    <g id="text_8">
     <!-- voltage -->
     <g transform="translate(217.477187 335.860562)scale(0.1 -0.1)">
      <defs>
       <path id="DejaVuSans-76" d="M 191 3500 
L 800 3500 
L 1894 563 
L 2988 3500 
L 3597 3500 
L 2284 0 
L 1503 0 
L 191 3500 
z
" transform="scale(0.015625)"/>
       <path id="DejaVuSans-6f" d="M 1959 3097 
Q 1497 3097 1228 2736 
Q 959 2375 959 1747 
Q 959 1119 1226 758 
Q 1494 397 1959 397 
Q 2419 397 2687 759 
Q 2956 1122 2956 1747 
Q 2956 2369 2687 2733 
Q 2419 3097 1959 3097 
z
M 1959 3584 
Q 2709 3584 3137 3096 
Q 3566 2609 3566 1747 
Q 3566 888 3137 398 
Q 2709 -91 1959 -91 
Q 1206 -91 779 398 
Q 353 888 353 1747 
Q 353 2609 779 3096 
Q 1206 3584 1959 3584 
z
" transform="scale(0.015625)"/>
       <path id="DejaVuSans-6c" d="M 603 4863 
L 1178 4863 
L 1178 0 
L 603 0 
L 603 4863 
z
" transform="scale(0.015625)"/>
       <path id="DejaVuSans-74" d="M 1172 4494 
L 1172 3500 
L 2356 3500 
L 2356 3053 
L 1172 3053 
L 1172 1153 
Q 1172 725 1289 603 
Q 1406 481 1766 481 
L 2356 481 
L 2356 0 
L 1766 0 
Q 1100 0 847 248 
Q 594 497 594 1153 
L 594 3053 
L 172 3053 
L 172 3500 
L 594 3500 
L 594 4494 
L 1172 4494 
z
" transform="scale(0.015625)"/>
       <path id="DejaVuSans-61" d="M 2194 1759 
Q 1497 1759 1228 1600 
Q 959 1441 959 1056 
Q 959 750 1161 570 
Q 1363 391 1709 391 
Q 2188 391 2477 730 
Q 2766 1069 2766 1631 
L 2766 1759 
L 2194 1759 
z
M 3341 1997 
L 3341 0 
L 2766 0 
L 2766 531 
Q 2569 213 2275 61 
Q 1981 -91 1556 -91 
Q 1019 -91 701 211 
Q 384 513 384 1019 
Q 384 1609 779 1909 
Q 1175 2209 1959 2209 
L 2766 2209 
L 2766 2266 
Q 2766 2663 2505 2880 
Q 2244 3097 1772 3097 
Q 1472 3097 1187 3025 
Q 903 2953 641 2809 
L 641 3341 
Q 956 3463 1253 3523 
Q 1550 3584 1831 3584 
Q 2591 3584 2966 3190 
Q 3341 2797 3341 1997 
z
" transform="scale(0.015625)"/>
       <path id="DejaVuSans-67" d="M 2906 1791 
Q 2906 2416 2648 2759 
Q 2391 3103 1925 3103 
Q 1463 3103 1205 2759 
Q 947 2416 947 1791 
Q 947 1169 1205 825 
Q 1463 481 1925 481 
Q 2391 481 2648 825 
Q 2906 1169 2906 1791 
z
M 3481 434 
Q 3481 -459 3084 -895 
Q 2688 -1331 1869 -1331 
Q 1566 -1331 1297 -1286 
Q 1028 -1241 775 -1147 
L 775 -588 
Q 1028 -725 1275 -790 
Q 1522 -856 1778 -856 
Q 2344 -856 2625 -561 
Q 2906 -266 2906 331 
L 2906 616 
Q 2728 306 2450 153 
Q 2172 0 1784 0 
Q 1141 0 747 490 
Q 353 981 353 1791 
Q 353 2603 747 3093 
Q 1141 3584 1784 3584 
Q 2172 3584 2450 3431 
Q 2728 3278 2906 2969 
L 2906 3500 
L 3481 3500 
L 3481 434 
z
" transform="scale(0.015625)"/>
       <path id="DejaVuSans-65" d="M 3597 1894 
L 3597 1613 
L 953 1613 
Q 991 1019 1311 708 
Q 1631 397 2203 397 
Q 2534 397 2845 478 
Q 3156 559 3463 722 
L 3463 178 
Q 3153 47 2828 -22 
Q 2503 -91 2169 -91 
Q 1331 -91 842 396 
Q 353 884 353 1716 
Q 353 2575 817 3079 
Q 1281 3584 2069 3584 
Q 2775 3584 3186 3129 
Q 3597 2675 3597 1894 
z
M 3022 2063 
Q 3016 2534 2758 2815 
Q 2500 3097 2075 3097 
Q 1594 3097 1305 2825 
Q 1016 2553 972 2059 
L 3022 2063 
z
" transform="scale(0.015625)"/>
      </defs>
      <use xlink:href="#DejaVuSans-76"/>
      <use xlink:href="#DejaVuSans-6f" x="59.179688"/>
      <use xlink:href="#DejaVuSans-6c" x="120.361328"/>
      <use xlink:href="#DejaVuSans-74" x="148.144531"/>
      <use xlink:href="#DejaVuSans-61" x="187.353516"/>
      <use xlink:href="#DejaVuSans-67" x="248.632812"/>
      <use xlink:href="#DejaVuSans-65" x="312.109375"/>
     </g>
    </g>
   </g>
   <g id="matplotlib.axis_2">
    <g id="ytick_1">
     <g id="line2d_8">
      <defs>
       <path id="m488bb8738a" d="M 0 0 
L -3.5 0 
" style="stroke: #000000; stroke-width: 0.8"/>
      </defs>
      <g>
       <use xlink:href="#m488bb8738a" x="57.6" y="284.422861" style="stroke: #000000; stroke-width: 0.8"/>
      </g>
     </g>
     <g id="text_9">
      <!-- 0.0 -->
      <g transform="translate(34.696875 288.22208)scale(0.1 -0.1)">
       <defs>
        <path id="DejaVuSans-2e" d="M 684 794 
L 1344 794 
L 1344 0 
L 684 0 
L 684 794 
z
" transform="scale(0.015625)"/>
       </defs>
       <use xlink:href="#DejaVuSans-30"/>
       <use xlink:href="#DejaVuSans-2e" x="63.623047"/>
       <use xlink:href="#DejaVuSans-30" x="95.410156"/>
      </g>
     </g>
    </g>
    <g id="ytick_2">
     <g id="line2d_9">
      <g>
       <use xlink:href="#m488bb8738a" x="57.6" y="250.197204" style="stroke: #000000; stroke-width: 0.8"/>
      </g>
     </g>
     <g id="text_10">
      <!-- 0.2 -->
      <g transform="translate(34.696875 253.996423)scale(0.1 -0.1)">
       <use xlink:href="#DejaVuSans-30"/>
       <use xlink:href="#DejaVuSans-2e" x="63.623047"/>
       <use xlink:href="#DejaVuSans-32" x="95.410156"/>
      </g>
     </g>
    </g>
    <g id="ytick_3">
     <g id="line2d_10">
      <g>
       <use xlink:href="#m488bb8738a" x="57.6" y="215.971547" style="stroke: #000000; stroke-width: 0.8"/>
      </g>
     </g>
     <g id="text_11">
      <!-- 0.4 -->
      <g transform="translate(34.696875 219.770766)scale(0.1 -0.1)">
       <use xlink:href="#DejaVuSans-30"/>
       <use xlink:href="#DejaVuSans-2e" x="63.623047"/>
       <use xlink:href="#DejaVuSans-34" x="95.410156"/>
      </g>
     </g>
    </g>
    <g id="ytick_4">
     <g id="line2d_11">
      <g>
       <use xlink:href="#m488bb8738a" x="57.6" y="181.74589" style="stroke: #000000; stroke-width: 0.8"/>
      </g>
     </g>
     <g id="text_12">
      <!-- 0.6 -->
      <g transform="translate(34.696875 185.545109)scale(0.1 -0.1)">
       <use xlink:href="#DejaVuSans-30"/>
       <use xlink:href="#DejaVuSans-2e" x="63.623047"/>
       <use xlink:href="#DejaVuSans-36" x="95.410156"/>
      </g>
     </g>
    </g>
    <g id="ytick_5">
     <g id="line2d_12">
      <g>
       <use xlink:href="#m488bb8738a" x="57.6" y="147.520233" style="stroke: #000000; stroke-width: 0.8"/>
      </g>
     </g>
     <g id="text_13">
      <!-- 0.8 -->
      <g transform="translate(34.696875 151.319452)scale(0.1 -0.1)">
       <use xlink:href="#DejaVuSans-30"/>
       <use xlink:href="#DejaVuSans-2e" x="63.623047"/>
       <use xlink:href="#DejaVuSans-38" x="95.410156"/>
      </g>
     </g>
    </g>
    <g id="ytick_6">
     <g id="line2d_13">
      <g>
       <use xlink:href="#m488bb8738a" x="57.6" y="113.294576" style="stroke: #000000; stroke-width: 0.8"/>
      </g>
     </g>
     <g id="text_14">
      <!-- 1.0 -->
      <g transform="translate(34.696875 117.093795)scale(0.1 -0.1)">
       <use xlink:href="#DejaVuSans-31"/>
       <use xlink:href="#DejaVuSans-2e" x="63.623047"/>
       <use xlink:href="#DejaVuSans-30" x="95.410156"/>
      </g>
     </g>
    </g>
    <g id="ytick_7">
     <g id="line2d_14">
      <g>
       <use xlink:href="#m488bb8738a" x="57.6" y="79.068919" style="stroke: #000000; stroke-width: 0.8"/>
      </g>
     </g>
     <g id="text_15">
      <!-- 1.2 -->
      <g transform="translate(34.696875 82.868138)scale(0.1 -0.1)">
       <use xlink:href="#DejaVuSans-31"/>
       <use xlink:href="#DejaVuSans-2e" x="63.623047"/>
       <use xlink:href="#DejaVuSans-32" x="95.410156"/>
      </g>
     </g>
    </g>
    <g id="ytick_8">
     <g id="line2d_15">
      <g>
       <use xlink:href="#m488bb8738a" x="57.6" y="44.843262" style="stroke: #000000; stroke-width: 0.8"/>
      </g>
     </g>
     <g id="text_16">
      <!-- 1.4 -->
      <g transform="translate(34.696875 48.642481)scale(0.1 -0.1)">
       <use xlink:href="#DejaVuSans-31"/>
       <use xlink:href="#DejaVuSans-2e" x="63.623047"/>
       <use xlink:href="#DejaVuSans-34" x="95.410156"/>
      </g>
     </g>
    </g>
    <g id="text_17">
     <!-- Iout (A) -->
     <g transform="translate(28.617187 193.102219)rotate(-90)scale(0.1 -0.1)">
      <defs>
       <path id="DejaVuSans-49" d="M 628 4666 
L 1259 4666 
L 1259 0 
L 628 0 
L 628 4666 
z
" transform="scale(0.015625)"/>
       <path id="DejaVuSans-75" d="M 544 1381 
L 544 3500 
L 1119 3500 
L 1119 1403 
Q 1119 906 1312 657 
Q 1506 409 1894 409 
Q 2359 409 2629 706 
Q 2900 1003 2900 1516 
L 2900 3500 
L 3475 3500 
L 3475 0 
L 2900 0 
L 2900 538 
Q 2691 219 2414 64 
Q 2138 -91 1772 -91 
Q 1169 -91 856 284 
Q 544 659 544 1381 
z
M 1991 3584 
L 1991 3584 
z
" transform="scale(0.015625)"/>
       <path id="DejaVuSans-20" transform="scale(0.015625)"/>
       <path id="DejaVuSans-28" d="M 1984 4856 
Q 1566 4138 1362 3434 
Q 1159 2731 1159 2009 
Q 1159 1288 1364 580 
Q 1569 -128 1984 -844 
L 1484 -844 
Q 1016 -109 783 600 
Q 550 1309 550 2009 
Q 550 2706 781 3412 
Q 1013 4119 1484 4856 
L 1984 4856 
z
" transform="scale(0.015625)"/>
       <path id="DejaVuSans-41" d="M 2188 4044 
L 1331 1722 
L 3047 1722 
L 2188 4044 
z
M 1831 4666 
L 2547 4666 
L 4325 0 
L 3669 0 
L 3244 1197 
L 1141 1197 
L 716 0 
L 50 0 
L 1831 4666 
z
" transform="scale(0.015625)"/>
       <path id="DejaVuSans-29" d="M 513 4856 
L 1013 4856 
Q 1481 4119 1714 3412 
Q 1947 2706 1947 2009 
Q 1947 1309 1714 600 
Q 1481 -109 1013 -844 
L 513 -844 
Q 928 -128 1133 580 
Q 1338 1288 1338 2009 
Q 1338 2731 1133 3434 
Q 928 4138 513 4856 
z
" transform="scale(0.015625)"/>
      </defs>
      <use xlink:href="#DejaVuSans-49"/>
      <use xlink:href="#DejaVuSans-6f" x="29.492188"/>
      <use xlink:href="#DejaVuSans-75" x="90.673828"/>
      <use xlink:href="#DejaVuSans-74" x="154.052734"/>
      <use xlink:href="#DejaVuSans-20" x="193.261719"/>
      <use xlink:href="#DejaVuSans-28" x="225.048828"/>
      <use xlink:href="#DejaVuSans-41" x="264.0625"/>
      <use xlink:href="#DejaVuSans-29" x="332.470703"/>
     </g>
    </g>
    <g id="text_18">
     <!-- 1e−6 -->
     <g transform="translate(57.6 38.472)scale(0.1 -0.1)">
      <defs>
       <path id="DejaVuSans-2212" d="M 678 2272 
L 4684 2272 
L 4684 1741 
L 678 1741 
L 678 2272 
z
" transform="scale(0.015625)"/>
      </defs>
      <use xlink:href="#DejaVuSans-31"/>
      <use xlink:href="#DejaVuSans-65" x="63.623047"/>
      <use xlink:href="#DejaVuSans-2212" x="125.146484"/>
      <use xlink:href="#DejaVuSans-36" x="208.935547"/>
     </g>
    </g>
   </g>
   <g id="line2d_16">
    <path d="M 73.832727 282.85913 
L 76.389062 203.436857 
L 78.945397 202.765798 
L 81.501732 192.76806 
L 84.058067 201.486531 
L 86.614402 188.759467 
L 89.170737 191.298068 
L 91.727072 187.883911 
L 94.283407 198.953344 
L 96.839742 185.837303 
L 99.396077 186.592448 
L 101.952412 183.034792 
L 104.508747 188.417864 
L 107.065082 182.297467 
L 109.621417 184.873152 
L 112.177752 183.38265 
L 114.734087 193.88157 
L 117.290422 182.073063 
L 119.846757 182.129453 
L 122.403092 178.982335 
L 124.959427 182.272727 
L 127.515762 177.6853 
L 130.072097 178.929299 
L 132.628432 177.592505 
L 135.184767 182.627931 
L 137.741102 176.902411 
L 140.297437 177.446752 
L 142.853772 175.683758 
L 145.410107 178.832969 
L 147.966442 175.509203 
L 150.522777 177.2242 
L 153.079112 176.484044 
L 155.635447 183.767932 
L 158.191782 175.510234 
L 160.748117 175.250334 
L 163.304452 173.076547 
L 165.860787 174.718654 
L 168.417122 171.877762 
L 170.973457 172.316999 
L 173.529792 171.379313 
L 176.086127 173.558262 
L 178.642462 170.581705 
L 181.198797 170.591533 
L 183.755132 169.582548 
L 186.311467 170.621279 
L 188.867802 169.06078 
L 191.424137 169.442081 
L 193.980472 168.909939 
L 196.536807 170.698421 
L 199.093142 168.18842 
L 201.649477 167.960993 
L 204.205812 167.127495 
L 206.762147 167.454437 
L 209.318482 166.429728 
L 211.874817 166.359265 
L 214.431152 165.896301 
L 216.987487 166.152407 
L 219.543822 165.234559 
L 222.100157 164.946526 
L 227.212827 164.189759 
L 229.769162 163.792451 
L 234.881832 162.827757 
L 237.438168 161.12864 
L 239.994503 161.963596 
L 242.550838 161.48482 
L 245.107173 161.567625 
L 247.663508 160.492146 
L 250.219843 161.041569 
L 252.776178 160.338059 
L 255.332513 160.277938 
L 257.888848 158.369567 
L 260.445183 159.68392 
L 263.001518 159.082517 
L 265.557853 159.317693 
L 268.114188 157.65407 
L 270.670523 158.577113 
L 273.226858 157.376033 
L 275.783193 157.249254 
L 278.339528 153.408995 
L 280.895863 156.538134 
L 283.452198 155.919288 
L 286.008533 156.673612 
L 288.564868 154.542271 
L 291.121203 156.204669 
L 293.677538 154.914369 
L 296.233873 155.067299 
L 298.790208 151.115851 
L 301.346543 154.220093 
L 303.902878 153.083807 
L 306.459213 153.785764 
L 309.015548 150.163608 
L 311.571883 152.420767 
L 314.128218 149.728937 
L 316.684553 149.514451 
L 319.240888 139.121937 
L 321.797223 148.499644 
L 324.353558 147.681643 
L 326.909893 149.918978 
L 329.466228 145.895656 
L 332.022563 149.860445 
L 334.578898 147.787309 
L 337.135233 148.533578 
L 339.691568 141.683235 
L 342.247903 147.840204 
L 344.804238 146.311652 
L 347.360573 147.874227 
L 349.916908 142.475715 
L 352.473243 146.451262 
L 355.029578 142.803753 
L 357.585913 142.945253 
L 360.142248 129.130592 
L 362.698583 141.556272 
L 365.254918 139.893303 
L 367.811253 142.962256 
L 370.367588 135.925322 
L 372.923923 142.213655 
L 375.480258 138.1785 
L 378.036593 139.115608 
L 380.592928 124.151069 
L 383.149263 136.875687 
L 385.705598 133.047292 
L 388.261933 136.014392 
L 390.818268 121.593522 
L 393.374603 131.55226 
L 395.930938 120.313188 
L 398.487273 119.641711 
L 398.487273 119.641711 
" clip-path="url(#pf01a0c18e6)" style="fill: none; stroke: #1f77b4; stroke-width: 1.5; stroke-linecap: square"/>
   </g>
   <g id="line2d_17">
    <path d="M 73.832727 276.760852 
L 76.389062 177.717641 
L 78.945397 176.737295 
L 81.501732 159.6195 
L 84.058067 174.802424 
L 86.614402 152.491885 
L 89.170737 157.299246 
L 91.727072 151.104883 
L 94.283407 170.905109 
L 96.839742 147.429999 
L 99.396077 149.02707 
L 101.952412 142.261104 
L 104.508747 152.768825 
L 107.065082 141.072099 
L 109.621417 146.315305 
L 112.177752 143.554071 
L 114.734087 163.37328 
L 117.290422 141.27154 
L 119.846757 141.574635 
L 122.403092 135.263118 
L 124.959427 142.240533 
L 127.515762 132.852065 
L 130.072097 135.703737 
L 132.628432 133.035582 
L 135.184767 143.804172 
L 137.741102 131.919406 
L 140.297437 133.348368 
L 142.853772 129.645302 
L 145.410107 136.876278 
L 147.966442 129.71396 
L 150.522777 133.881074 
L 153.079112 132.498589 
L 155.635447 148.564921 
L 158.191782 130.863186 
L 160.748117 130.58325 
L 163.304452 125.599624 
L 165.860787 130.008372 
L 168.417122 123.175185 
L 170.973457 124.680832 
L 173.529792 122.555618 
L 176.086127 128.7548 
L 178.642462 121.108029 
L 181.198797 121.574886 
L 183.755132 119.044168 
L 186.311467 122.677441 
L 188.867802 118.378961 
L 191.424137 120.1832 
L 193.980472 119.051996 
L 196.536807 125.863495 
L 199.093142 117.931455 
L 201.649477 117.89773 
L 204.205812 115.347117 
L 206.762147 117.827291 
L 209.318482 114.085929 
L 211.874817 114.999427 
L 214.431152 113.789706 
L 216.987487 117.649372 
L 219.543822 112.954377 
L 222.100157 113.269295 
L 224.656492 111.651308 
L 227.212827 114.078612 
L 229.769162 111.176018 
L 232.325497 112.398761 
L 234.881832 111.588463 
L 237.438168 116.931972 
L 239.994503 110.050383 
L 242.550838 109.422785 
L 245.107173 107.479735 
L 247.663508 108.132808 
L 250.219843 105.950359 
L 252.776178 105.800916 
L 255.332513 104.89009 
L 257.888848 105.391993 
L 260.445183 103.686447 
L 263.001518 103.235781 
L 265.557853 102.491446 
L 268.114188 102.186288 
L 270.670523 101.457458 
L 275.783193 100.337037 
L 278.339528 99.192921 
L 280.895863 99.175969 
L 283.452198 98.528957 
L 286.008533 98.316984 
L 288.564868 97.110718 
L 291.121203 97.35859 
L 293.677538 96.394943 
L 296.233873 96.087376 
L 298.790208 93.654946 
L 301.346543 94.913947 
L 303.902878 93.897295 
L 306.459213 93.983723 
L 309.015548 91.353918 
L 311.571883 92.455193 
L 314.128218 90.297053 
L 316.684553 89.782573 
L 319.240888 82.472822 
L 321.797223 88.374706 
L 324.353558 87.426121 
L 326.909893 88.820735 
L 329.466228 85.390182 
L 332.022563 88.23549 
L 334.578898 86.262037 
L 337.135233 86.609169 
L 339.691568 80.680903 
L 342.247903 85.504578 
L 344.804238 83.916667 
L 347.360573 85.050217 
L 349.916908 80.035938 
L 352.473243 83.305599 
L 355.029578 79.75947 
L 357.585913 79.618636 
L 360.142248 67.430312 
L 362.698583 77.846579 
L 365.254918 76.052622 
L 367.811253 78.675687 
L 370.367588 71.877855 
L 372.923923 77.523102 
L 375.480258 73.426287 
L 378.036593 74.074532 
L 380.592928 60.083867 
L 383.149263 71.430593 
L 385.705598 67.507843 
L 388.261933 70.102673 
L 390.818268 56.379742 
L 393.374603 65.297593 
L 395.930938 54.532243 
L 398.487273 53.568 
L 398.487273 53.568 
" clip-path="url(#pf01a0c18e6)" style="fill: none; stroke: #ff7f0e; stroke-width: 1.5; stroke-linecap: square"/>
   </g>
   <g id="line2d_18">
    <path d="M 73.832727 288.849083 
L 76.389062 213.946146 
L 78.945397 212.727543 
L 81.501732 197.977422 
L 84.058067 210.473195 
L 86.614402 191.258494 
L 89.170737 195.147874 
L 91.727072 189.557356 
L 94.283407 205.894025 
L 96.839742 185.840961 
L 99.396077 186.932429 
L 101.952412 180.814715 
L 104.508747 189.533335 
L 107.065082 179.293454 
L 109.621417 183.50988 
L 112.177752 180.910902 
L 114.734087 196.587223 
L 117.290422 178.383107 
L 119.846757 178.333585 
L 122.403092 172.777995 
L 124.959427 178.29889 
L 127.515762 170.246943 
L 130.072097 172.356778 
L 132.628432 169.897792 
L 135.184767 178.205988 
L 137.741102 168.435229 
L 140.297437 169.283229 
L 142.853772 166.036986 
L 145.410107 171.383421 
L 147.966442 165.519514 
L 150.522777 168.393537 
L 153.079112 167.010863 
L 155.635447 178.100853 
L 158.191782 165.141656 
L 160.748117 164.55675 
L 163.304452 160.587728 
L 165.860787 163.388592 
L 168.417122 158.189062 
L 170.973457 158.913832 
L 173.529792 157.099182 
L 176.086127 160.853194 
L 178.642462 155.427573 
L 181.198797 155.361689 
L 183.755132 153.374604 
L 186.311467 155.233054 
L 188.867802 152.234384 
L 191.424137 152.884271 
L 193.980472 151.811718 
L 196.536807 154.820141 
L 199.093142 150.27746 
L 201.649477 149.772696 
L 204.205812 148.093889 
L 206.762147 148.678621 
L 209.318482 146.609228 
L 211.874817 146.440961 
L 214.431152 145.47063 
L 216.987487 145.981766 
L 219.543822 144.072453 
L 222.100157 143.490734 
L 224.656492 142.545829 
L 227.212827 142.039336 
L 232.325497 140.170622 
L 234.881832 139.258295 
L 237.438168 136.881418 
L 239.994503 137.386407 
L 242.550838 136.434028 
L 245.107173 136.30604 
L 247.663508 134.473411 
L 250.219843 135.094153 
L 252.776178 133.7837 
L 255.332513 133.50213 
L 257.888848 130.333736 
L 260.445183 132.201457 
L 263.001518 131.043317 
L 265.557853 131.289292 
L 268.114188 128.366211 
L 270.670523 129.744003 
L 273.226858 127.562882 
L 275.783193 127.186413 
L 278.339528 120.971657 
L 280.895863 125.678482 
L 283.452198 124.485247 
L 286.008533 125.635345 
L 288.564868 121.867322 
L 291.121203 124.56487 
L 293.677538 122.181216 
L 296.233873 122.302515 
L 298.790208 115.615321 
L 301.346543 120.578974 
L 303.902878 118.488195 
L 306.459213 119.562476 
L 309.015548 113.328648 
L 311.571883 116.928698 
L 314.128218 112.261812 
L 316.684553 111.720879 
L 319.240888 96.448198 
L 321.797223 109.820768 
L 324.353558 108.3258 
L 326.909893 111.87065 
L 329.466228 105.089136 
L 332.022563 111.504285 
L 334.578898 107.820858 
L 337.135233 108.926049 
L 339.691568 97.733031 
L 342.247903 107.488069 
L 344.804238 104.756858 
L 347.360573 107.285653 
L 349.916908 98.155641 
L 352.473243 104.56998 
L 355.029578 98.325032 
L 357.585913 98.365384 
L 360.142248 77.794619 
L 362.698583 95.770374 
L 365.254918 92.928609 
L 367.811253 97.768891 
L 370.367588 86.343465 
L 372.923923 96.21797 
L 375.480258 89.438749 
L 378.036593 90.739952 
L 380.592928 68.541523 
L 383.149263 86.830287 
L 385.705598 80.695935 
L 388.261933 85.092135 
L 390.818268 63.901638 
L 393.374603 77.781359 
L 395.930938 61.563699 
L 398.487273 60.292453 
L 398.487273 60.292453 
" clip-path="url(#pf01a0c18e6)" style="fill: none; stroke: #2ca02c; stroke-width: 1.5; stroke-linecap: square"/>
   </g>
   <g id="line2d_19">
    <path d="M 73.832727 280.843513 
L 76.389062 203.277251 
L 78.945397 202.309223 
L 81.501732 190.059715 
L 84.058067 200.491689 
L 86.614402 184.780785 
L 89.170737 187.921537 
L 91.727072 183.53596 
L 94.283407 197.041537 
L 96.839742 180.766465 
L 99.396077 181.6522 
L 101.952412 176.984558 
L 104.508747 183.790276 
L 107.065082 175.887802 
L 109.621417 179.156509 
L 112.177752 177.182988 
L 114.734087 190.091241 
L 117.290422 175.423117 
L 119.846757 175.414646 
L 122.403092 171.289123 
L 124.959427 175.439715 
L 127.515762 169.408005 
L 130.072097 170.99298 
L 132.628432 169.187143 
L 135.184767 175.567549 
L 137.741102 168.164786 
L 140.297437 168.809294 
L 142.853772 166.441215 
L 145.410107 170.438734 
L 147.966442 166.090608 
L 150.522777 168.239448 
L 153.079112 167.223741 
L 155.635447 176.132482 
L 158.191782 165.950922 
L 160.748117 165.532953 
L 163.304452 162.651897 
L 165.860787 164.700556 
L 168.417122 160.946373 
L 170.973457 161.460089 
L 173.529792 160.179669 
L 176.086127 162.889408 
L 178.642462 159.018232 
L 181.198797 158.962119 
L 183.755132 157.590458 
L 186.311467 158.84332 
L 188.867802 156.782132 
L 191.424137 157.194317 
L 193.980472 156.446472 
L 196.536807 158.547617 
L 199.093142 155.41028 
L 201.649477 155.03457 
L 204.205812 153.922428 
L 206.762147 154.204807 
L 209.318482 152.886192 
L 211.874817 152.691175 
L 214.431152 152.044558 
L 216.987487 152.139096 
L 219.543822 151.046405 
L 224.656492 149.985879 
L 229.769162 148.868634 
L 232.325497 147.998035 
L 234.881832 147.355655 
L 237.438168 144.634243 
L 239.994503 146.065381 
L 242.550838 145.364 
L 245.107173 145.547615 
L 247.663508 143.907907 
L 250.219843 144.782289 
L 252.776178 143.716933 
L 255.332513 143.640145 
L 257.888848 140.823996 
L 260.445183 142.763917 
L 263.001518 141.867962 
L 265.557853 142.222082 
L 268.114188 139.757642 
L 270.670523 141.110766 
L 273.226858 139.333373 
L 275.783193 139.138395 
L 278.339528 133.758971 
L 280.895863 138.116045 
L 283.452198 137.210117 
L 286.008533 138.288231 
L 288.564868 135.198216 
L 291.121203 137.576167 
L 293.677538 135.684272 
L 296.233873 135.884974 
L 298.790208 130.289128 
L 301.346543 134.634076 
L 303.902878 132.98828 
L 306.459213 133.972538 
L 309.015548 128.819237 
L 311.571883 131.966532 
L 314.128218 128.139736 
L 316.684553 127.8081 
L 319.240888 114.301264 
L 321.797223 126.470116 
L 324.353558 125.316449 
L 326.909893 128.380146 
L 329.466228 122.794703 
L 332.022563 128.244924 
L 334.578898 125.301944 
L 337.135233 126.305963 
L 339.691568 116.926639 
L 342.247903 125.281388 
L 344.804238 123.121348 
L 347.360573 125.275024 
L 349.916908 117.771452 
L 352.473243 123.210566 
L 355.029578 118.121787 
L 357.585913 118.263948 
L 360.142248 100.309793 
L 362.698583 116.335402 
L 365.254918 114.045867 
L 367.811253 118.181969 
L 370.367588 108.633451 
L 372.923923 117.068451 
L 375.480258 111.503457 
L 378.036593 112.710637 
L 380.592928 93.262034 
L 383.149263 109.59961 
L 385.705598 104.45496 
L 388.261933 108.339232 
L 390.818268 89.649132 
L 393.374603 102.264977 
L 395.930938 87.825437 
L 398.487273 86.872011 
L 398.487273 86.872011 
" clip-path="url(#pf01a0c18e6)" style="fill: none; stroke: #d62728; stroke-width: 1.5; stroke-linecap: square"/>
   </g>
   <g id="line2d_20">
    <path d="M 73.832727 267.30336 
L 76.389062 175.680928 
L 78.945397 175.279021 
L 81.501732 167.250353 
L 84.058067 174.429956 
L 86.614402 164.289374 
L 89.170737 166.37254 
L 91.727072 163.788927 
L 94.283407 172.875686 
L 96.839742 162.353757 
L 99.396077 163.026376 
L 101.952412 160.361664 
L 104.508747 164.638109 
L 107.065082 159.930774 
L 109.621417 162.025183 
L 112.177752 160.933204 
L 114.734087 169.81406 
L 117.290422 160.091174 
L 119.846757 160.229524 
L 122.403092 157.832479 
L 124.959427 160.519875 
L 127.515762 156.960183 
L 130.072097 158.027311 
L 132.628432 157.043126 
L 135.184767 161.234864 
L 137.741102 156.647525 
L 140.297437 157.180946 
L 142.853772 155.831834 
L 145.410107 158.542639 
L 147.966442 155.858016 
L 150.522777 157.416361 
L 153.079112 156.893561 
L 155.635447 163.787462 
L 158.191782 156.288419 
L 160.748117 156.190778 
L 163.304452 154.39619 
L 165.860787 155.976553 
L 168.417122 153.551721 
L 170.973457 154.066348 
L 173.529792 153.331626 
L 176.086127 155.540308 
L 178.642462 152.83004 
L 181.198797 152.975396 
L 183.755132 152.130539 
L 186.311467 153.325516 
L 188.867802 151.885766 
L 191.424137 152.467442 
L 193.980472 152.06866 
L 196.536807 154.440188 
L 199.093142 151.674642 
L 201.649477 151.641135 
L 204.205812 150.825015 
L 206.762147 151.561133 
L 209.318482 150.38193 
L 211.874817 150.630147 
L 214.431152 150.240315 
L 216.987487 151.36647 
L 219.543822 149.922757 
L 222.100157 149.962325 
L 224.656492 149.473966 
L 227.212827 150.066029 
L 229.769162 149.124642 
L 232.325497 149.466534 
L 234.881832 149.176316 
L 237.438168 150.480648 
L 239.994503 148.612228 
L 242.550838 148.363291 
L 245.107173 147.910623 
L 247.663508 147.845418 
L 250.219843 147.447143 
L 255.332513 147.052102 
L 257.888848 146.736394 
L 260.445183 146.658419 
L 263.001518 146.422914 
L 265.557853 146.314314 
L 268.114188 145.858746 
L 270.670523 145.934579 
L 273.226858 145.525832 
L 275.783193 145.379728 
L 278.339528 144.130751 
L 280.895863 144.974684 
L 283.452198 144.684176 
L 286.008533 144.844255 
L 288.564868 144.03824 
L 291.121203 144.539825 
L 293.677538 144.006395 
L 296.233873 143.994607 
L 298.790208 142.392355 
L 301.346543 143.543866 
L 303.902878 143.031457 
L 306.459213 143.255401 
L 309.015548 141.697082 
L 311.571883 142.588802 
L 314.128218 141.378307 
L 316.684553 141.222429 
L 319.240888 136.333771 
L 321.797223 140.675901 
L 324.353558 140.248082 
L 326.909893 141.214254 
L 329.466228 139.323423 
L 332.022563 141.106465 
L 334.578898 140.10813 
L 337.135233 140.416948 
L 339.691568 137.08352 
L 342.247903 140.018812 
L 344.804238 139.253693 
L 347.360573 139.965499 
L 349.916908 137.31387 
L 352.473243 139.225493 
L 355.029578 137.397738 
L 357.585913 137.441312 
L 360.142248 130.130452 
L 362.698583 136.69638 
L 365.254918 135.813227 
L 367.811253 137.340762 
L 370.367588 133.697113 
L 372.923923 136.915003 
L 375.480258 134.80821 
L 378.036593 135.355388 
L 380.592928 127.03948 
L 383.149263 134.051067 
L 385.705598 131.969882 
L 388.261933 133.547133 
L 390.818268 125.476273 
L 393.374603 131.107003 
L 395.930938 124.655881 
L 398.487273 124.318536 
L 398.487273 124.318536 
" clip-path="url(#pf01a0c18e6)" style="fill: none; stroke: #9467bd; stroke-width: 1.5; stroke-linecap: square"/>
   </g>
   <g id="line2d_21">
    <path d="M 73.832727 295.488 
L 76.389062 204.684062 
L 78.945397 204.010068 
L 81.501732 191.692162 
L 84.058067 202.617544 
L 86.614402 186.834902 
L 89.170737 190.153189 
L 91.727072 185.897948 
L 94.283407 199.933521 
L 96.839742 183.47537 
L 99.396077 184.552287 
L 101.952412 180.050456 
L 104.508747 187.068675 
L 107.065082 179.258168 
L 109.621417 182.721764 
L 112.177752 180.85384 
L 114.734087 194.699766 
L 117.290422 179.417163 
L 119.846757 179.616903 
L 122.403092 175.510659 
L 124.959427 180.031958 
L 127.515762 173.959263 
L 130.072097 175.771536 
L 132.628432 174.042284 
L 135.184767 181.065765 
L 137.741102 173.321155 
L 140.297437 174.214764 
L 142.853772 171.854827 
L 145.410107 176.431402 
L 147.966442 171.852319 
L 150.522777 174.47447 
L 153.079112 173.548185 
L 155.635447 184.235847 
L 158.191782 172.453743 
L 160.748117 172.255753 
L 163.304452 169.147642 
L 165.860787 171.832533 
L 168.417122 167.631754 
L 170.973457 168.507988 
L 173.529792 167.194439 
L 176.086127 170.93134 
L 178.642462 166.280824 
L 181.198797 166.517221 
L 183.755132 165.000903 
L 186.311467 167.070283 
L 188.867802 164.53333 
L 191.424137 165.521399 
L 193.980472 164.811884 
L 196.536807 168.778866 
L 199.093142 164.097225 
L 201.649477 164.019211 
L 204.205812 162.553365 
L 206.762147 163.840271 
L 209.318482 161.753431 
L 211.874817 162.165421 
L 214.431152 161.450843 
L 216.987487 163.394391 
L 219.543822 160.86243 
L 222.100157 160.921981 
L 224.656492 160.029731 
L 227.212827 161.073627 
L 229.769162 159.58033 
L 232.325497 159.99118 
L 234.881832 159.462988 
L 237.438168 161.727626 
L 239.994503 158.524794 
L 242.550838 158.075173 
L 245.107173 157.204709 
L 247.663508 157.1497 
L 250.219843 156.339542 
L 252.776178 156.03078 
L 257.888848 155.178488 
L 265.557853 154.213729 
L 268.114188 153.484944 
L 270.670523 153.501409 
L 273.226858 152.824426 
L 275.783193 152.532795 
L 278.339528 150.652109 
L 280.895863 151.79165 
L 283.452198 151.278715 
L 286.008533 151.472 
L 288.564868 150.155363 
L 291.121203 150.890897 
L 293.677538 149.987035 
L 296.233873 149.92125 
L 298.790208 147.362792 
L 301.346543 149.103239 
L 303.902878 148.22792 
L 306.459213 148.544805 
L 309.015548 146.016958 
L 311.571883 147.379135 
L 314.128218 145.395505 
L 316.684553 145.110214 
L 319.240888 137.684612 
L 321.797223 144.073828 
L 324.353558 143.337109 
L 326.909893 144.84223 
L 329.466228 141.765473 
L 332.022563 144.584238 
L 334.578898 142.9095 
L 337.135233 143.376362 
L 339.691568 138.054255 
L 342.247903 142.640868 
L 344.804238 141.344917 
L 347.360573 142.475843 
L 349.916908 138.153651 
L 352.473243 141.185865 
L 355.029578 138.180925 
L 357.585913 138.212192 
L 360.142248 127.203396 
L 362.698583 136.927051 
L 365.254918 135.467025 
L 367.811253 137.868643 
L 370.367588 132.056798 
L 372.923923 137.092166 
L 375.480258 133.664461 
L 378.036593 134.365052 
L 380.592928 121.9669 
L 383.149263 132.320741 
L 385.705598 129.012206 
L 388.261933 131.413071 
L 390.818268 119.327174 
L 393.374603 127.522809 
L 395.930938 117.964492 
L 398.487273 117.350774 
L 398.487273 117.350774 
" clip-path="url(#pf01a0c18e6)" style="fill: none; stroke: #8c564b; stroke-width: 1.5; stroke-linecap: square"/>
   </g>
   <g id="line2d_22">
    <path d="M 73.832727 288.319568 
L 76.389062 219.526992 
L 78.945397 219.031757 
L 81.501732 211.432148 
L 84.058067 218.009666 
L 86.614402 208.418667 
L 89.170737 210.273564 
L 91.727072 207.719074 
L 94.283407 215.903282 
L 96.839742 206.160802 
L 99.396077 206.693148 
L 101.952412 204.094713 
L 104.508747 207.956281 
L 107.065082 203.508168 
L 109.621417 205.319767 
L 112.177752 204.209975 
L 114.734087 211.834188 
L 117.290422 203.234859 
L 119.846757 203.249991 
L 122.403092 201.004367 
L 124.959427 203.274746 
L 127.515762 200.038533 
L 130.072097 200.86132 
L 132.628432 199.898675 
L 135.184767 203.317789 
L 137.741102 199.344436 
L 140.297437 199.674324 
L 142.853772 198.446192 
L 145.410107 200.505235 
L 147.966442 198.2371 
L 150.522777 199.314684 
L 153.079112 198.763248 
L 155.635447 203.554446 
L 158.191782 198.025456 
L 160.748117 197.801084 
L 163.304452 196.369492 
L 165.860787 197.325764 
L 168.417122 195.514484 
L 170.973457 195.712436 
L 173.529792 195.085059 
L 176.086127 196.267775 
L 178.642462 194.478418 
L 181.198797 194.404381 
L 183.755132 193.776201 
L 186.311467 194.22449 
L 188.867802 193.330978 
L 191.424137 193.407733 
L 193.980472 193.038661 
L 196.536807 193.671038 
L 199.093142 192.472257 
L 201.649477 192.230908 
L 204.205812 191.798905 
L 206.762147 191.686272 
L 209.318482 191.272609 
L 214.431152 190.745849 
L 216.987487 190.267205 
L 219.543822 190.17696 
L 222.100157 189.800777 
L 224.656492 189.635619 
L 227.212827 188.803791 
L 229.769162 188.936257 
L 232.325497 188.12176 
L 234.881832 187.792144 
L 237.438168 184.475999 
L 239.994503 187.043515 
L 242.550838 186.63136 
L 245.107173 187.120896 
L 247.663508 185.780629 
L 250.219843 186.839389 
L 252.776178 186.086511 
L 255.332513 186.202583 
L 257.888848 183.960309 
L 260.445183 185.779489 
L 263.001518 185.198535 
L 265.557853 185.604993 
L 268.114188 183.820122 
L 270.670523 184.991771 
L 273.226858 183.768495 
L 275.783193 183.746321 
L 278.339528 179.659093 
L 280.895863 183.199256 
L 283.452198 182.634141 
L 286.008533 183.509875 
L 288.564868 181.384758 
L 291.121203 183.179136 
L 293.677538 181.940434 
L 296.233873 182.173258 
L 298.790208 178.26073 
L 301.346543 181.467895 
L 303.902878 180.403411 
L 306.459213 181.164653 
L 309.015548 177.66459 
L 311.571883 179.962591 
L 314.128218 177.398934 
L 316.684553 177.273713 
L 319.240888 167.07433 
L 321.797223 176.463546 
L 324.353558 175.727519 
L 326.909893 177.935529 
L 329.466228 174.142215 
L 332.022563 177.985243 
L 334.578898 176.075821 
L 337.135233 176.84039 
L 339.691568 170.401107 
L 342.247903 176.294468 
L 344.804238 174.904136 
L 347.360573 176.411556 
L 349.916908 171.417061 
L 352.473243 175.190594 
L 355.029578 171.845926 
L 357.585913 172.045103 
L 360.142248 159.018886 
L 362.698583 170.879163 
L 365.254918 169.36597 
L 367.811253 172.256691 
L 370.367588 165.772296 
L 372.923923 171.659824 
L 375.480258 167.985051 
L 378.036593 168.912975 
L 380.592928 154.939392 
L 383.149263 166.960152 
L 385.705598 163.449327 
L 388.261933 166.252507 
L 390.818268 152.815015 
L 393.374603 162.264704 
L 395.930938 151.778235 
L 398.487273 151.267892 
L 398.487273 151.267892 
" clip-path="url(#pf01a0c18e6)" style="fill: none; stroke: #e377c2; stroke-width: 1.5; stroke-linecap: square"/>
   </g>
   <g id="line2d_23">
    <path d="M 73.832727 276.743292 
L 76.389062 190.861687 
L 78.945397 189.978036 
L 81.501732 176.191119 
L 84.058067 188.187981 
L 86.614402 170.418997 
L 89.170737 174.130957 
L 91.727072 169.197385 
L 94.283407 184.690512 
L 96.839742 166.163848 
L 99.396077 167.313948 
L 101.952412 162.021815 
L 104.508747 169.995272 
L 107.065082 160.945906 
L 109.621417 164.866634 
L 112.177752 162.661873 
L 114.734087 177.767929 
L 117.290422 160.745326 
L 119.846757 160.87865 
L 122.403092 156.06977 
L 124.959427 161.159112 
L 127.515762 154.108904 
L 130.072097 156.125618 
L 132.628432 154.068644 
L 135.184767 161.870334 
L 137.741102 153.053075 
L 140.297437 153.983327 
L 142.853772 151.208985 
L 145.410107 156.275474 
L 147.966442 151.041079 
L 150.522777 153.886344 
L 153.079112 152.770126 
L 155.635447 164.142148 
L 158.191782 151.417954 
L 160.748117 151.086979 
L 163.304452 147.530691 
L 165.860787 150.392441 
L 168.417122 145.644048 
L 170.973457 146.524985 
L 173.529792 144.982617 
L 176.086127 148.898944 
L 178.642462 143.759798 
L 181.198797 143.913683 
L 183.755132 142.167455 
L 186.311467 144.273348 
L 188.867802 141.460824 
L 191.424137 142.392673 
L 193.980472 141.534679 
L 196.536807 145.338239 
L 199.093142 140.507854 
L 201.649477 140.287933 
L 204.205812 138.686236 
L 206.762147 139.797163 
L 209.318482 137.626611 
L 211.874817 137.869352 
L 214.431152 137.043448 
L 216.987487 138.563084 
L 219.543822 136.151035 
L 222.100157 135.935935 
L 224.656492 135.057891 
L 227.212827 135.609066 
L 229.769162 134.250027 
L 232.325497 134.224729 
L 234.881832 133.552799 
L 237.438168 134.109106 
L 239.994503 132.260374 
L 247.663508 130.313001 
L 250.219843 129.986396 
L 252.776178 129.325187 
L 255.332513 128.941184 
L 257.888848 127.513752 
L 260.445183 127.980179 
L 263.001518 127.298146 
L 265.557853 127.224716 
L 268.114188 125.707808 
L 270.670523 126.210404 
L 273.226858 124.989679 
L 275.783193 124.667523 
L 278.339528 121.143096 
L 280.895863 123.688099 
L 283.452198 122.878512 
L 286.008533 123.423447 
L 288.564868 121.205775 
L 291.121203 122.666526 
L 293.677538 121.221293 
L 296.233873 121.228494 
L 298.790208 117.084251 
L 301.346543 120.062634 
L 303.902878 118.733718 
L 306.459213 119.340212 
L 309.015548 115.405772 
L 311.571883 117.634105 
L 314.128218 114.624019 
L 316.684553 114.251112 
L 319.240888 103.689606 
L 321.797223 112.96353 
L 324.353558 111.935807 
L 326.909893 114.232942 
L 329.466228 109.738702 
L 332.022563 113.946754 
L 334.578898 111.511591 
L 337.135233 112.230584 
L 339.691568 104.585512 
L 342.247903 111.223279 
L 344.804238 109.378899 
L 347.360573 111.054745 
L 349.916908 104.871046 
L 352.473243 109.235352 
L 355.029578 104.970111 
L 357.585913 105.018701 
L 360.142248 90.028366 
L 362.698583 103.250578 
L 365.254918 101.246489 
L 367.811253 104.631224 
L 370.367588 96.590611 
L 372.923923 103.580139 
L 375.480258 98.831813 
L 378.036593 99.792279 
L 380.592928 83.195854 
L 383.149263 96.983277 
L 385.705598 92.519202 
L 388.261933 95.769585 
L 390.818268 79.80096 
L 393.374603 90.508065 
L 395.930938 78.050477 
L 398.487273 77.186248 
L 398.487273 77.186248 
" clip-path="url(#pf01a0c18e6)" style="fill: none; stroke: #7f7f7f; stroke-width: 1.5; stroke-linecap: square"/>
   </g>
   <g id="line2d_24">
    <path d="M 73.832727 286.918512 
L 76.389062 205.162505 
L 78.945397 204.189267 
L 81.501732 190.275495 
L 84.058067 202.491973 
L 86.614402 184.408079 
L 89.170737 188.15912 
L 91.727072 183.077209 
L 94.283407 198.764756 
L 96.839742 179.935683 
L 99.396077 181.08517 
L 101.952412 175.611533 
L 104.508747 183.842604 
L 107.065082 174.494699 
L 109.621417 178.513898 
L 112.177752 176.218111 
L 114.734087 191.63099 
L 117.290422 174.26289 
L 119.846757 174.369086 
L 122.403092 169.362479 
L 124.959427 174.680943 
L 127.515762 167.321306 
L 130.072097 169.40519 
L 132.628432 167.24213 
L 135.184767 175.313325 
L 137.741102 166.169335 
L 140.297437 167.121492 
L 142.853772 164.212797 
L 145.410107 169.497147 
L 147.966442 164.030321 
L 150.522777 166.974942 
L 153.079112 165.797643 
L 155.635447 177.275009 
L 158.191782 164.296498 
L 160.748117 163.92657 
L 163.304452 160.215991 
L 165.860787 163.221623 
L 168.417122 158.245342 
L 170.973457 159.15214 
L 173.529792 157.522898 
L 176.086127 161.597701 
L 178.642462 156.227596 
L 181.198797 156.376748 
L 183.755132 154.53195 
L 186.311467 156.755522 
L 188.867802 153.786452 
L 191.424137 154.757734 
L 193.980472 153.846255 
L 196.536807 157.820624 
L 199.093142 152.766717 
L 201.649477 152.523756 
L 204.205812 150.823042 
L 206.762147 152.016207 
L 209.318482 149.703146 
L 211.874817 149.957823 
L 214.431152 149.074308 
L 216.987487 150.69284 
L 219.543822 148.126566 
L 222.100157 147.965619 
L 224.656492 146.95627 
L 227.212827 147.574769 
L 229.769162 146.109373 
L 232.325497 146.100724 
L 234.881832 145.38604 
L 237.438168 145.868806 
L 239.994503 143.896167 
L 247.663508 141.841205 
L 250.219843 141.455332 
L 252.776178 140.760741 
L 255.332513 140.338607 
L 257.888848 138.877762 
L 260.445183 139.306553 
L 263.001518 138.586823 
L 265.557853 138.486667 
L 268.114188 136.92439 
L 270.670523 137.411732 
L 273.226858 136.0967 
L 275.783193 135.788642 
L 278.339528 132.181319 
L 280.895863 134.685961 
L 283.452198 133.880728 
L 286.008533 134.420664 
L 288.564868 132.119316 
L 291.121203 133.60533 
L 293.677538 132.094521 
L 296.233873 132.084388 
L 298.790208 127.808897 
L 301.346543 130.841059 
L 303.902878 129.451412 
L 306.459213 130.059442 
L 309.015548 125.996557 
L 311.571883 128.268273 
L 314.128218 125.154729 
L 316.684553 124.752272 
L 319.240888 113.905664 
L 321.797223 123.279108 
L 324.353558 122.207126 
L 326.909893 124.562565 
L 329.466228 119.885993 
L 332.022563 124.229492 
L 334.578898 121.690411 
L 337.135233 122.423862 
L 339.691568 114.526602 
L 342.247903 121.340985 
L 344.804238 119.416243 
L 347.360573 121.140748 
L 349.916908 114.727085 
L 352.473243 119.225996 
L 355.029578 114.803434 
L 357.585913 114.840026 
L 360.142248 99.521352 
L 362.698583 112.933035 
L 365.254918 110.85607 
L 367.811253 114.330206 
L 370.367588 106.007485 
L 372.923923 113.198999 
L 375.480258 108.280779 
L 378.036593 109.255543 
L 380.592928 92.338355 
L 383.149263 106.310626 
L 385.705598 101.716415 
L 388.261933 105.023349 
L 390.818268 88.788569 
L 393.374603 99.602648 
L 395.930938 86.990062 
L 398.487273 86.098712 
L 398.487273 86.098712 
" clip-path="url(#pf01a0c18e6)" style="fill: none; stroke: #bcbd22; stroke-width: 1.5; stroke-linecap: square"/>
   </g>
   <g id="line2d_25">
    <path d="M 73.832727 289.598683 
L 76.389062 201.767567 
L 78.945397 200.684952 
L 81.501732 184.566989 
L 84.058067 198.687545 
L 86.614402 177.640361 
L 89.170737 182.116431 
L 91.727072 176.15538 
L 94.283407 194.676475 
L 96.839742 172.548867 
L 99.396077 173.921029 
L 101.952412 167.370814 
L 104.508747 177.252959 
L 107.065082 166.068535 
L 109.621417 170.965711 
L 112.177752 168.247431 
L 114.734087 186.61415 
L 117.290422 165.948019 
L 119.846757 166.123431 
L 122.403092 160.051552 
L 124.959427 166.553857 
L 127.515762 157.60062 
L 130.072097 160.221659 
L 132.628432 157.608318 
L 135.184767 167.59419 
L 137.741102 156.392724 
L 140.297437 157.634644 
L 142.853772 154.056612 
L 145.410107 160.682096 
L 147.966442 153.930669 
L 150.522777 157.731362 
L 153.079112 156.287258 
L 155.635447 170.520598 
L 158.191782 154.534682 
L 160.748117 154.146454 
L 163.304452 149.49862 
L 165.860787 153.38719 
L 168.417122 147.074308 
L 170.973457 148.33666 
L 173.529792 146.302134 
L 176.086127 151.740499 
L 178.642462 144.761752 
L 181.198797 145.083375 
L 183.755132 142.709486 
L 186.311467 145.842617 
L 188.867802 141.890988 
L 191.424137 143.337533 
L 193.980472 142.215954 
L 196.536807 147.836232 
L 199.093142 140.990751 
L 201.649477 140.802681 
L 204.205812 138.513098 
L 206.762147 140.411052 
L 209.318482 137.178062 
L 211.874817 137.759145 
L 214.431152 136.616831 
L 216.987487 139.432745 
L 219.543822 135.603092 
L 222.100157 135.633876 
L 224.656492 134.216145 
L 227.212827 135.727568 
L 229.769162 133.426318 
L 232.325497 133.981724 
L 234.881832 133.135413 
L 237.438168 136.314768 
L 239.994503 131.738542 
L 242.550838 131.001911 
L 245.107173 129.58459 
L 247.663508 129.498684 
L 250.219843 128.134007 
L 252.776178 127.640027 
L 255.332513 126.905197 
L 260.445183 125.656703 
L 263.001518 124.989678 
L 265.557853 124.523403 
L 268.114188 123.453683 
L 270.670523 123.329984 
L 273.226858 122.300766 
L 275.783193 121.779526 
L 278.339528 119.161794 
L 280.895863 120.525356 
L 283.452198 119.734396 
L 286.008533 119.885194 
L 288.564868 117.931811 
L 291.121203 118.882714 
L 293.677538 117.499123 
L 296.233873 117.313199 
L 298.790208 113.62054 
L 301.346543 115.957652 
L 303.902878 114.609809 
L 306.459213 114.988577 
L 309.015548 111.305795 
L 311.571883 113.13407 
L 314.128218 110.232639 
L 316.684553 109.819707 
L 319.240888 99.932558 
L 321.797223 108.070144 
L 324.353558 106.949666 
L 326.909893 108.846682 
L 329.466228 104.542786 
L 332.022563 108.445331 
L 334.578898 105.951179 
L 337.135233 106.52463 
L 339.691568 98.988958 
L 342.247903 105.290893 
L 344.804238 103.350103 
L 347.360573 104.900961 
L 349.916908 98.663577 
L 352.473243 102.861862 
L 355.029578 98.49154 
L 357.585913 98.414159 
L 360.142248 83.751588 
L 362.698583 96.413123 
L 365.254918 94.298284 
L 367.811253 97.581748 
L 370.367588 89.399566 
L 372.923923 96.302884 
L 375.480258 91.391246 
L 378.036593 92.243913 
L 380.592928 75.746381 
L 383.149263 89.175064 
L 385.705598 84.577705 
L 388.261933 87.721959 
L 390.818268 71.789122 
L 393.374603 82.187078 
L 395.930938 69.80831 
L 398.487273 68.776869 
L 398.487273 68.776869 
" clip-path="url(#pf01a0c18e6)" style="fill: none; stroke: #17becf; stroke-width: 1.5; stroke-linecap: square"/>
   </g>
   <g id="patch_3">
    <path d="M 57.6 307.584 
L 57.6 41.472 
" style="fill: none; stroke: #000000; stroke-width: 0.8; stroke-linejoin: miter; stroke-linecap: square"/>
   </g>
   <g id="patch_4">
    <path d="M 414.72 307.584 
L 414.72 41.472 
" style="fill: none; stroke: #000000; stroke-width: 0.8; stroke-linejoin: miter; stroke-linecap: square"/>
   </g>
   <g id="patch_5">
    <path d="M 57.6 307.584 
L 414.72 307.584 
" style="fill: none; stroke: #000000; stroke-width: 0.8; stroke-linejoin: miter; stroke-linecap: square"/>
   </g>
   <g id="patch_6">
    <path d="M 57.6 41.472 
L 414.72 41.472 
" style="fill: none; stroke: #000000; stroke-width: 0.8; stroke-linejoin: miter; stroke-linecap: square"/>
   </g>
   <g id="text_19">
    <!-- Voltage To Current Characteristics -->
    <g transform="translate(134.225625 35.472)scale(0.12 -0.12)">
     <defs>
      <path id="DejaVuSans-56" d="M 1831 0 
L 50 4666 
L 709 4666 
L 2188 738 
L 3669 4666 
L 4325 4666 
L 2547 0 
L 1831 0 
z
" transform="scale(0.015625)"/>
      <path id="DejaVuSans-54" d="M -19 4666 
L 3928 4666 
L 3928 4134 
L 2272 4134 
L 2272 0 
L 1638 0 
L 1638 4134 
L -19 4134 
L -19 4666 
z
" transform="scale(0.015625)"/>
      <path id="DejaVuSans-43" d="M 4122 4306 
L 4122 3641 
Q 3803 3938 3442 4084 
Q 3081 4231 2675 4231 
Q 1875 4231 1450 3742 
Q 1025 3253 1025 2328 
Q 1025 1406 1450 917 
Q 1875 428 2675 428 
Q 3081 428 3442 575 
Q 3803 722 4122 1019 
L 4122 359 
Q 3791 134 3420 21 
Q 3050 -91 2638 -91 
Q 1578 -91 968 557 
Q 359 1206 359 2328 
Q 359 3453 968 4101 
Q 1578 4750 2638 4750 
Q 3056 4750 3426 4639 
Q 3797 4528 4122 4306 
z
" transform="scale(0.015625)"/>
      <path id="DejaVuSans-72" d="M 2631 2963 
Q 2534 3019 2420 3045 
Q 2306 3072 2169 3072 
Q 1681 3072 1420 2755 
Q 1159 2438 1159 1844 
L 1159 0 
L 581 0 
L 581 3500 
L 1159 3500 
L 1159 2956 
Q 1341 3275 1631 3429 
Q 1922 3584 2338 3584 
Q 2397 3584 2469 3576 
Q 2541 3569 2628 3553 
L 2631 2963 
z
" transform="scale(0.015625)"/>
      <path id="DejaVuSans-6e" d="M 3513 2113 
L 3513 0 
L 2938 0 
L 2938 2094 
Q 2938 2591 2744 2837 
Q 2550 3084 2163 3084 
Q 1697 3084 1428 2787 
Q 1159 2491 1159 1978 
L 1159 0 
L 581 0 
L 581 3500 
L 1159 3500 
L 1159 2956 
Q 1366 3272 1645 3428 
Q 1925 3584 2291 3584 
Q 2894 3584 3203 3211 
Q 3513 2838 3513 2113 
z
" transform="scale(0.015625)"/>
      <path id="DejaVuSans-68" d="M 3513 2113 
L 3513 0 
L 2938 0 
L 2938 2094 
Q 2938 2591 2744 2837 
Q 2550 3084 2163 3084 
Q 1697 3084 1428 2787 
Q 1159 2491 1159 1978 
L 1159 0 
L 581 0 
L 581 4863 
L 1159 4863 
L 1159 2956 
Q 1366 3272 1645 3428 
Q 1925 3584 2291 3584 
Q 2894 3584 3203 3211 
Q 3513 2838 3513 2113 
z
" transform="scale(0.015625)"/>
      <path id="DejaVuSans-63" d="M 3122 3366 
L 3122 2828 
Q 2878 2963 2633 3030 
Q 2388 3097 2138 3097 
Q 1578 3097 1268 2742 
Q 959 2388 959 1747 
Q 959 1106 1268 751 
Q 1578 397 2138 397 
Q 2388 397 2633 464 
Q 2878 531 3122 666 
L 3122 134 
Q 2881 22 2623 -34 
Q 2366 -91 2075 -91 
Q 1284 -91 818 406 
Q 353 903 353 1747 
Q 353 2603 823 3093 
Q 1294 3584 2113 3584 
Q 2378 3584 2631 3529 
Q 2884 3475 3122 3366 
z
" transform="scale(0.015625)"/>
      <path id="DejaVuSans-69" d="M 603 3500 
L 1178 3500 
L 1178 0 
L 603 0 
L 603 3500 
z
M 603 4863 
L 1178 4863 
L 1178 4134 
L 603 4134 
L 603 4863 
z
" transform="scale(0.015625)"/>
      <path id="DejaVuSans-73" d="M 2834 3397 
L 2834 2853 
Q 2591 2978 2328 3040 
Q 2066 3103 1784 3103 
Q 1356 3103 1142 2972 
Q 928 2841 928 2578 
Q 928 2378 1081 2264 
Q 1234 2150 1697 2047 
L 1894 2003 
Q 2506 1872 2764 1633 
Q 3022 1394 3022 966 
Q 3022 478 2636 193 
Q 2250 -91 1575 -91 
Q 1294 -91 989 -36 
Q 684 19 347 128 
L 347 722 
Q 666 556 975 473 
Q 1284 391 1588 391 
Q 1994 391 2212 530 
Q 2431 669 2431 922 
Q 2431 1156 2273 1281 
Q 2116 1406 1581 1522 
L 1381 1569 
Q 847 1681 609 1914 
Q 372 2147 372 2553 
Q 372 3047 722 3315 
Q 1072 3584 1716 3584 
Q 2034 3584 2315 3537 
Q 2597 3491 2834 3397 
z
" transform="scale(0.015625)"/>
     </defs>
     <use xlink:href="#DejaVuSans-56"/>
     <use xlink:href="#DejaVuSans-6f" x="60.658203"/>
     <use xlink:href="#DejaVuSans-6c" x="121.839844"/>
     <use xlink:href="#DejaVuSans-74" x="149.623047"/>
     <use xlink:href="#DejaVuSans-61" x="188.832031"/>
     <use xlink:href="#DejaVuSans-67" x="250.111328"/>
     <use xlink:href="#DejaVuSans-65" x="313.587891"/>
     <use xlink:href="#DejaVuSans-20" x="375.111328"/>
     <use xlink:href="#DejaVuSans-54" x="406.898438"/>
     <use xlink:href="#DejaVuSans-6f" x="450.982422"/>
     <use xlink:href="#DejaVuSans-20" x="512.164062"/>
     <use xlink:href="#DejaVuSans-43" x="543.951172"/>
     <use xlink:href="#DejaVuSans-75" x="613.775391"/>
     <use xlink:href="#DejaVuSans-72" x="677.154297"/>
     <use xlink:href="#DejaVuSans-72" x="716.517578"/>
     <use xlink:href="#DejaVuSans-65" x="755.380859"/>
     <use xlink:href="#DejaVuSans-6e" x="816.904297"/>
     <use xlink:href="#DejaVuSans-74" x="880.283203"/>
     <use xlink:href="#DejaVuSans-20" x="919.492188"/>
     <use xlink:href="#DejaVuSans-43" x="951.279297"/>
     <use xlink:href="#DejaVuSans-68" x="1021.103516"/>
     <use xlink:href="#DejaVuSans-61" x="1084.482422"/>
     <use xlink:href="#DejaVuSans-72" x="1145.761719"/>
     <use xlink:href="#DejaVuSans-61" x="1186.875"/>
     <use xlink:href="#DejaVuSans-63" x="1248.154297"/>
     <use xlink:href="#DejaVuSans-74" x="1303.134766"/>
     <use xlink:href="#DejaVuSans-65" x="1342.34375"/>
     <use xlink:href="#DejaVuSans-72" x="1403.867188"/>
     <use xlink:href="#DejaVuSans-69" x="1444.980469"/>
     <use xlink:href="#DejaVuSans-73" x="1472.763672"/>
     <use xlink:href="#DejaVuSans-74" x="1524.863281"/>
     <use xlink:href="#DejaVuSans-69" x="1564.072266"/>
     <use xlink:href="#DejaVuSans-63" x="1591.855469"/>
     <use xlink:href="#DejaVuSans-73" x="1646.835938"/>
    </g>
   </g>
   <g id="legend_1">
    <g id="patch_7">
     <path d="M 340.065313 302.584 
L 407.72 302.584 
Q 409.72 302.584 409.72 300.584 
L 409.72 154.80275 
Q 409.72 152.80275 407.72 152.80275 
L 340.065313 152.80275 
Q 338.065313 152.80275 338.065313 154.80275 
L 338.065313 300.584 
Q 338.065313 302.584 340.065313 302.584 
z
" style="fill: #ffffff; opacity: 0.8; stroke: #cccccc; stroke-linejoin: miter"/>
    </g>
    <g id="line2d_26">
     <path d="M 342.065313 160.901187 
L 352.065313 160.901187 
L 362.065313 160.901187 
" style="fill: none; stroke: #1f77b4; stroke-width: 1.5; stroke-linecap: square"/>
    </g>
    <g id="text_20">
     <!-- i(viout) -->
     <g transform="translate(370.065313 164.401187)scale(0.1 -0.1)">
      <use xlink:href="#DejaVuSans-69"/>
      <use xlink:href="#DejaVuSans-28" x="27.783203"/>
      <use xlink:href="#DejaVuSans-76" x="66.796875"/>
      <use xlink:href="#DejaVuSans-69" x="125.976562"/>
      <use xlink:href="#DejaVuSans-6f" x="153.759766"/>
      <use xlink:href="#DejaVuSans-75" x="214.941406"/>
      <use xlink:href="#DejaVuSans-74" x="278.320312"/>
      <use xlink:href="#DejaVuSans-29" x="317.529297"/>
     </g>
    </g>
    <g id="line2d_27">
     <path d="M 342.065313 175.579313 
L 352.065313 175.579313 
L 362.065313 175.579313 
" style="fill: none; stroke: #ff7f0e; stroke-width: 1.5; stroke-linecap: square"/>
    </g>
    <g id="text_21">
     <!-- i(viout) -->
     <g transform="translate(370.065313 179.079313)scale(0.1 -0.1)">
      <use xlink:href="#DejaVuSans-69"/>
      <use xlink:href="#DejaVuSans-28" x="27.783203"/>
      <use xlink:href="#DejaVuSans-76" x="66.796875"/>
      <use xlink:href="#DejaVuSans-69" x="125.976562"/>
      <use xlink:href="#DejaVuSans-6f" x="153.759766"/>
      <use xlink:href="#DejaVuSans-75" x="214.941406"/>
      <use xlink:href="#DejaVuSans-74" x="278.320312"/>
      <use xlink:href="#DejaVuSans-29" x="317.529297"/>
     </g>
    </g>
    <g id="line2d_28">
     <path d="M 342.065313 190.257438 
L 352.065313 190.257438 
L 362.065313 190.257438 
" style="fill: none; stroke: #2ca02c; stroke-width: 1.5; stroke-linecap: square"/>
    </g>
    <g id="text_22">
     <!-- i(viout) -->
     <g transform="translate(370.065313 193.757438)scale(0.1 -0.1)">
      <use xlink:href="#DejaVuSans-69"/>
      <use xlink:href="#DejaVuSans-28" x="27.783203"/>
      <use xlink:href="#DejaVuSans-76" x="66.796875"/>
      <use xlink:href="#DejaVuSans-69" x="125.976562"/>
      <use xlink:href="#DejaVuSans-6f" x="153.759766"/>
      <use xlink:href="#DejaVuSans-75" x="214.941406"/>
      <use xlink:href="#DejaVuSans-74" x="278.320312"/>
      <use xlink:href="#DejaVuSans-29" x="317.529297"/>
     </g>
    </g>
    <g id="line2d_29">
     <path d="M 342.065313 204.935563 
L 352.065313 204.935563 
L 362.065313 204.935563 
" style="fill: none; stroke: #d62728; stroke-width: 1.5; stroke-linecap: square"/>
    </g>
    <g id="text_23">
     <!-- i(viout) -->
     <g transform="translate(370.065313 208.435563)scale(0.1 -0.1)">
      <use xlink:href="#DejaVuSans-69"/>
      <use xlink:href="#DejaVuSans-28" x="27.783203"/>
      <use xlink:href="#DejaVuSans-76" x="66.796875"/>
      <use xlink:href="#DejaVuSans-69" x="125.976562"/>
      <use xlink:href="#DejaVuSans-6f" x="153.759766"/>
      <use xlink:href="#DejaVuSans-75" x="214.941406"/>
      <use xlink:href="#DejaVuSans-74" x="278.320312"/>
      <use xlink:href="#DejaVuSans-29" x="317.529297"/>
     </g>
    </g>
    <g id="line2d_30">
     <path d="M 342.065313 219.613688 
L 352.065313 219.613688 
L 362.065313 219.613688 
" style="fill: none; stroke: #9467bd; stroke-width: 1.5; stroke-linecap: square"/>
    </g>
    <g id="text_24">
     <!-- i(viout) -->
     <g transform="translate(370.065313 223.113688)scale(0.1 -0.1)">
      <use xlink:href="#DejaVuSans-69"/>
      <use xlink:href="#DejaVuSans-28" x="27.783203"/>
      <use xlink:href="#DejaVuSans-76" x="66.796875"/>
      <use xlink:href="#DejaVuSans-69" x="125.976562"/>
      <use xlink:href="#DejaVuSans-6f" x="153.759766"/>
      <use xlink:href="#DejaVuSans-75" x="214.941406"/>
      <use xlink:href="#DejaVuSans-74" x="278.320312"/>
      <use xlink:href="#DejaVuSans-29" x="317.529297"/>
     </g>
    </g>
    <g id="line2d_31">
     <path d="M 342.065313 234.291812 
L 352.065313 234.291812 
L 362.065313 234.291812 
" style="fill: none; stroke: #8c564b; stroke-width: 1.5; stroke-linecap: square"/>
    </g>
    <g id="text_25">
     <!-- i(viout) -->
     <g transform="translate(370.065313 237.791812)scale(0.1 -0.1)">
      <use xlink:href="#DejaVuSans-69"/>
      <use xlink:href="#DejaVuSans-28" x="27.783203"/>
      <use xlink:href="#DejaVuSans-76" x="66.796875"/>
      <use xlink:href="#DejaVuSans-69" x="125.976562"/>
      <use xlink:href="#DejaVuSans-6f" x="153.759766"/>
      <use xlink:href="#DejaVuSans-75" x="214.941406"/>
      <use xlink:href="#DejaVuSans-74" x="278.320312"/>
      <use xlink:href="#DejaVuSans-29" x="317.529297"/>
     </g>
    </g>
    <g id="line2d_32">
     <path d="M 342.065313 248.969938 
L 352.065313 248.969938 
L 362.065313 248.969938 
" style="fill: none; stroke: #e377c2; stroke-width: 1.5; stroke-linecap: square"/>
    </g>
    <g id="text_26">
     <!-- i(viout) -->
     <g transform="translate(370.065313 252.469938)scale(0.1 -0.1)">
      <use xlink:href="#DejaVuSans-69"/>
      <use xlink:href="#DejaVuSans-28" x="27.783203"/>
      <use xlink:href="#DejaVuSans-76" x="66.796875"/>
      <use xlink:href="#DejaVuSans-69" x="125.976562"/>
      <use xlink:href="#DejaVuSans-6f" x="153.759766"/>
      <use xlink:href="#DejaVuSans-75" x="214.941406"/>
      <use xlink:href="#DejaVuSans-74" x="278.320312"/>
      <use xlink:href="#DejaVuSans-29" x="317.529297"/>
     </g>
    </g>
    <g id="line2d_33">
     <path d="M 342.065313 263.648062 
L 352.065313 263.648062 
L 362.065313 263.648062 
" style="fill: none; stroke: #7f7f7f; stroke-width: 1.5; stroke-linecap: square"/>
    </g>
    <g id="text_27">
     <!-- i(viout) -->
     <g transform="translate(370.065313 267.148062)scale(0.1 -0.1)">
      <use xlink:href="#DejaVuSans-69"/>
      <use xlink:href="#DejaVuSans-28" x="27.783203"/>
      <use xlink:href="#DejaVuSans-76" x="66.796875"/>
      <use xlink:href="#DejaVuSans-69" x="125.976562"/>
      <use xlink:href="#DejaVuSans-6f" x="153.759766"/>
      <use xlink:href="#DejaVuSans-75" x="214.941406"/>
      <use xlink:href="#DejaVuSans-74" x="278.320312"/>
      <use xlink:href="#DejaVuSans-29" x="317.529297"/>
     </g>
    </g>
    <g id="line2d_34">
     <path d="M 342.065313 278.326188 
L 352.065313 278.326188 
L 362.065313 278.326188 
" style="fill: none; stroke: #bcbd22; stroke-width: 1.5; stroke-linecap: square"/>
    </g>
    <g id="text_28">
     <!-- i(viout) -->
     <g transform="translate(370.065313 281.826188)scale(0.1 -0.1)">
      <use xlink:href="#DejaVuSans-69"/>
      <use xlink:href="#DejaVuSans-28" x="27.783203"/>
      <use xlink:href="#DejaVuSans-76" x="66.796875"/>
      <use xlink:href="#DejaVuSans-69" x="125.976562"/>
      <use xlink:href="#DejaVuSans-6f" x="153.759766"/>
      <use xlink:href="#DejaVuSans-75" x="214.941406"/>
      <use xlink:href="#DejaVuSans-74" x="278.320312"/>
      <use xlink:href="#DejaVuSans-29" x="317.529297"/>
     </g>
    </g>
    <g id="line2d_35">
     <path d="M 342.065313 293.004312 
L 352.065313 293.004312 
L 362.065313 293.004312 
" style="fill: none; stroke: #17becf; stroke-width: 1.5; stroke-linecap: square"/>
    </g>
    <g id="text_29">
     <!-- i(viout) -->
     <g transform="translate(370.065313 296.504312)scale(0.1 -0.1)">
      <use xlink:href="#DejaVuSans-69"/>
      <use xlink:href="#DejaVuSans-28" x="27.783203"/>
      <use xlink:href="#DejaVuSans-76" x="66.796875"/>
      <use xlink:href="#DejaVuSans-69" x="125.976562"/>
      <use xlink:href="#DejaVuSans-6f" x="153.759766"/>
      <use xlink:href="#DejaVuSans-75" x="214.941406"/>
      <use xlink:href="#DejaVuSans-74" x="278.320312"/>
      <use xlink:href="#DejaVuSans-29" x="317.529297"/>
     </g>
    </g>
   </g>
  </g>
 </g>
 <defs>
  <clipPath id="pf01a0c18e6">
   <rect x="57.6" y="41.472" width="357.12" height="266.112"/>
  </clipPath>
 </defs>
</svg>
